<?xml version="1.0" standalone="no"?>
<!DOCTYPE svg PUBLIC "-//W3C//DTD SVG 1.1//EN" "http://www.w3.org/Graphics/SVG/1.1/DTD/svg11.dtd" >
<svg xmlns="http://www.w3.org/2000/svg" xmlns:xlink="http://www.w3.org/1999/xlink" version="1.1">
<metadata>
Created by FontForge 20170731 at Thu Sep 20 14:36:32 2007
 By Aleksey,,,
Copyright (c) Ray Larabie 2007. Do not distribute. Report piracy to piracy@typodermic.com. Visit www.typodermic.com and www.larabiefonts.com
</metadata>
<defs>
<font id="SuperclarendonBl" horiz-adv-x="936" >
  <font-face 
    font-family="Superclarendon Bl"
    font-weight="900"
    font-stretch="normal"
    units-per-em="1000"
    panose-1="2 0 5 5 2 0 0 2 0 3"
    ascent="775"
    descent="-225"
    x-height="509"
    cap-height="743"
    bbox="-163 -236 1237 952"
    underline-thickness="50"
    underline-position="-150"
    unicode-range="U+0020-F8C0"
  />
<missing-glyph horiz-adv-x="437" 
d="M401 0h-364v743h364v-743zM95 692v-637h253v637h-253z" />
    <glyph glyph-name=".notdef" horiz-adv-x="437" 
d="M401 0h-364v743h364v-743zM95 692v-637h253v637h-253z" />
    <glyph glyph-name=".null" horiz-adv-x="292" 
 />
    <glyph glyph-name="nonmarkingreturn" horiz-adv-x="285" 
 />
    <glyph glyph-name="space" unicode=" " horiz-adv-x="345" 
 />
    <glyph glyph-name="exclam" unicode="!" horiz-adv-x="446" 
d="M166 245q-3 73 -9.5 124.5t-14.5 88.5t-16.5 63t-15.5 47t-11.5 40t-4.5 43q0 101 128 101q126 0 126 -101q0 -24 -4 -43t-11 -40t-15 -47t-16.5 -63t-16 -89t-12.5 -124h-107zM116 96q0 21 8 39.5t22.5 32.5t33.5 22t40 8t39.5 -8t32.5 -22t22 -32.5t8 -39.5t-8 -40
t-22 -33.5t-32.5 -22.5t-39.5 -8t-40 8t-33.5 22.5t-22.5 33.5t-8 40z" />
    <glyph glyph-name="quotedbl" unicode="&#x22;" horiz-adv-x="477" 
d="M84 431q-5 67 -13 104.5t-15.5 61.5t-13 43.5t-5.5 51.5q0 25 9.5 40t23 23t28.5 10t27 2q10 0 25 -2.5t28 -10.5t22.5 -22.5t9.5 -39.5q0 -32 -5 -51.5t-12.5 -43.5t-16 -61.5t-15.5 -104.5h-77zM314 431q-5 67 -13 104.5t-15.5 61.5t-13 43.5t-5.5 51.5q0 25 9.5 40
t23 23t28.5 10t27 2q10 0 25 -2.5t28 -10.5t22.5 -22.5t9.5 -39.5q0 -32 -5 -51.5t-12.5 -43.5t-16 -61.5t-15.5 -104.5h-77z" />
    <glyph glyph-name="numbersign" unicode="#" horiz-adv-x="619" 
d="M140 259l25 136h-85v94h102l32 177h104l-32 -177h106l32 177h104l-32 -177h80v-94h-97l-24 -136h88v-95h-105l-29 -164h-105l29 164h-105l-29 -164h-105l29 164h-76v95h93zM245 259h105l25 136h-106z" />
    <glyph glyph-name="dollar" unicode="$" horiz-adv-x="652" 
d="M295 107q-23 3 -38.5 7.5t-27.5 8t-21 6.5t-19 3t-15.5 -5.5t-11.5 -19.5h-107v171l107 4q4 -15 16.5 -27.5t30.5 -22t40 -16t46 -10.5v84q-71 11 -117.5 26.5t-74 37t-38.5 49.5t-11 65q0 35 13.5 64t38 50t60.5 32.5t81 11.5q25 0 48 -3v120h63v-131q27 -7 44.5 -13.5
t31.5 -6.5q18 0 36 24h98v-167l-109 -6q-11 35 -38.5 53.5t-62.5 25.5v-82q57 -10 102.5 -21.5t77.5 -30.5t49.5 -48t17.5 -72q0 -44 -19 -75.5t-48 -51.5t-65.5 -30t-70.5 -10h-23t-21 1v-102h-63v107zM417 238q0 18 -16 27.5t-43 14.5v-79h1q58 0 58 37zM239 495
q0 -17 15 -26t41 -16v74q-56 -3 -56 -32z" />
    <glyph glyph-name="percent" unicode="%" horiz-adv-x="817" 
d="M260 0h-111l415 682h115zM384 518q0 -75 -42 -120.5t-123 -45.5q-32 0 -60.5 8t-50 27t-34.5 49t-13 74q0 78 40 125t124 47q33 0 61.5 -8.5t50.5 -28t34.5 -51t12.5 -76.5zM219 414q12 0 21 4.5t15 16t9 31t3 48.5q0 33 -2 53.5t-6.5 32.5t-12.5 16t-20 4q-25 0 -37 -18
t-12 -73q0 -35 2 -57.5t6.5 -35t13 -17.5t20.5 -5zM762 166q0 -75 -42 -120.5t-123 -45.5q-32 0 -60.5 8t-50 27t-34.5 49t-13 74q0 78 40 125t124 47q33 0 61.5 -8.5t50.5 -28t34.5 -51t12.5 -76.5zM597 62q12 0 21 4.5t15 16t9 31t3 48.5q0 33 -2 53.5t-6.5 32.5t-12.5 16
t-20 4q-25 0 -37 -18t-12 -73q0 -35 2 -57.5t6.5 -35t13 -17.5t20.5 -5z" />
    <glyph glyph-name="ampersand" unicode="&#x26;" horiz-adv-x="978" 
d="M903 157q0 -37 -11 -68.5t-33 -55t-56 -36.5t-80 -13q-42 0 -80.5 11t-76.5 30q-91 -41 -195 -41q-57 0 -112.5 11.5t-99 39t-70.5 74t-27 117.5q0 75 39 134t111 98q-14 24 -22 54t-8 62q0 52 20 87t53 57t76.5 31.5t90.5 9.5q69 0 113 -38t44 -107q0 -36 -11.5 -64
t-30.5 -50.5t-44 -40.5t-52 -34q15 -32 32.5 -64.5t38 -63.5t42.5 -59.5t46 -51.5q42 48 42 116q0 23 -12.5 31.5t-57.5 8.5v105h272v-105q-44 0 -56.5 -8.5t-12.5 -31.5q0 -51 -20 -97t-55 -85q24 -10 52 -10q26 0 47 11t21 36v42h83v-42zM371 105q20 0 38.5 1t36.5 4
q-51 43 -93 94.5t-71 108.5q-15 -19 -24 -41t-9 -50q0 -29 10.5 -50.5t28 -36.5t39 -22.5t44.5 -7.5zM388 608q0 -20 2.5 -36t7.5 -34q33 16 53.5 37t20.5 49q0 19 -8.5 30.5t-31.5 11.5q-25 0 -34.5 -17.5t-9.5 -40.5z" />
    <glyph glyph-name="quotesingle" unicode="'" horiz-adv-x="247" 
d="M84 431q-5 67 -13 104.5t-15.5 61.5t-13 43.5t-5.5 51.5q0 25 9.5 40t23 23t28.5 10t27 2q10 0 25 -2.5t28 -10.5t22.5 -22.5t9.5 -39.5q0 -32 -5 -51.5t-12.5 -43.5t-16 -61.5t-15.5 -104.5h-77z" />
    <glyph glyph-name="parenleft" unicode="(" horiz-adv-x="419" 
d="M382 777q-44 -13 -79 -40t-59 -79t-37 -133.5t-13 -203.5t13 -205t37 -137.5t59 -86t79 -51.5l-24 -46q-69 14 -127.5 44t-101.5 89t-67.5 154t-24.5 239t24.5 235.5t67.5 146.5t102.5 81t128.5 38z" />
    <glyph glyph-name="parenright" unicode=")" horiz-adv-x="419" 
d="M37 -160q44 13 79 40t59 79t37 133.5t13 203.5t-13 205t-37 137.5t-59 86t-79 51.5l24 46q69 -14 127.5 -44t101.5 -89t67.5 -154t24.5 -239t-24.5 -235.5t-67.5 -146.5t-102.5 -81t-128.5 -38z" />
    <glyph glyph-name="asterisk" unicode="*" horiz-adv-x="654" 
d="M365 720q0 -16 -3.5 -31t-7.5 -30t-7.5 -29.5t-3.5 -29.5q0 -11 6 -11t19.5 17.5t31.5 38.5t38 38.5t40 17.5t34 -13t14 -31q0 -23 -23.5 -39t-52 -27t-52 -19.5t-23.5 -17.5q0 -5 17 -5h81q93 0 93 -51q0 -18 -13 -32t-38 -14q-16 0 -34.5 6.5t-37 15t-35 17t-29.5 13.5
q-4 2 -6 2t-3 1q-5 0 -5 -3q0 -8 14 -23.5t31 -34.5t31 -39t14 -36q0 -20 -13.5 -33.5t-33.5 -13.5q-18 0 -30 12t-20.5 30t-13.5 39.5t-9 39.5t-8 30t-9 12t-8.5 -12t-7.5 -30t-9 -39.5t-13.5 -39.5t-20.5 -30t-30 -12q-20 0 -33.5 13.5t-13.5 33.5q0 16 14 36t31 39
t31 34.5t14 23.5q0 3 -5 3q-1 -1 -3 -1t-6 -2q-13 -5 -29.5 -13.5t-35 -17t-37 -15t-34.5 -6.5q-25 0 -38 14t-13 32q0 51 93 51h81q17 0 17 5q0 9 -23.5 17.5t-52 19.5t-52 27t-23.5 39q0 18 14 31t34 13q19 0 39 -17.5t38 -38.5t32 -38.5t20 -17.5t6 11q0 15 -3.5 29.5
t-7.5 29.5t-7.5 30t-3.5 31q0 26 13.5 39t32.5 13q20 0 33.5 -13t13.5 -39z" />
    <glyph glyph-name="plus" unicode="+" horiz-adv-x="567" 
d="M233 305h-196v100h196v196h100v-196h197v-100h-197v-197h-100v197z" />
    <glyph glyph-name="comma" unicode="," horiz-adv-x="366" 
d="M105 -106q35 15 55.5 38.5t20.5 50.5q0 24 -19 24q-42 0 -62 24.5t-20 69.5q0 46 29 71.5t71 25.5q48 0 77 -31.5t29 -86.5q0 -48 -10 -83t-29 -62.5t-48 -48.5t-66 -40z" />
    <glyph glyph-name="hyphen" unicode="-" horiz-adv-x="336" 
d="M308 234h-281v105h281v-105z" />
    <glyph glyph-name="period" unicode="." horiz-adv-x="376" 
d="M84 96q0 21 8 39.5t22.5 32.5t33.5 22t40 8t39.5 -8t32.5 -22t22 -32.5t8 -39.5t-8 -40t-22 -33.5t-32.5 -22.5t-39.5 -8t-40 8t-33.5 22.5t-22.5 33.5t-8 40z" />
    <glyph glyph-name="slash" unicode="/" horiz-adv-x="475" 
d="M153 -30h-127l294 774h126z" />
    <glyph glyph-name="zero" unicode="0" horiz-adv-x="758" 
d="M379 682q79 0 139.5 -16.5t101.5 -57t62 -109t21 -173.5t-21 -171.5t-61.5 -104.5t-101.5 -52t-140 -14q-80 0 -140.5 14t-101 52t-61.5 104.5t-21 171.5t21 173.5t62 109t101.5 57t139.5 16.5zM379 567q-24 0 -39.5 -13t-24.5 -41.5t-12.5 -74t-3.5 -111.5
q0 -78 3.5 -123t12.5 -68t24.5 -29t39.5 -6t39.5 6t24.5 29t12.5 68t3.5 123q0 66 -3.5 111.5t-12.5 74t-24.5 41.5t-39.5 13z" />
    <glyph glyph-name="one" unicode="1" horiz-adv-x="598" 
d="M444 675q-3 -27 -4.5 -46t-1.5 -36v-446q0 -43 106 -43v-104h-476v104q124 0 124 43v320h-133l-4 100q140 3 193 119z" />
    <glyph glyph-name="two" unicode="2" horiz-adv-x="701" 
d="M348 682q51 0 101 -9t89 -32t63.5 -63t24.5 -101q0 -75 -29.5 -119.5t-75 -70.5t-99 -40.5t-102 -28t-84 -32.5t-44.5 -56q23 21 55 33.5t77 12.5q35 0 59.5 -4t45 -9.5t40 -9.5t44.5 -4q63 0 67 40h64q1 -6 1.5 -15.5t1 -19.5t0.5 -18.5v-14.5q0 -27 -8 -51t-25 -42
t-42.5 -28.5t-59.5 -10.5q-62 0 -100 8.5t-66 18.5t-53 18.5t-61 8.5q-63 0 -82 -43h-95q15 87 44.5 143t65.5 93.5t73 62.5t68 50.5t50.5 57.5t19.5 83q0 25 -8 43t-21 30t-30 17.5t-35 5.5q-42 0 -64 -12t-30 -32q21 -1 40 -22.5t19 -53.5q0 -38 -24 -64t-67 -26
q-42 0 -64.5 27t-22.5 69q0 34 16 71.5t50 68t86.5 50.5t126.5 20z" />
    <glyph glyph-name="three" unicode="3" horiz-adv-x="676" 
d="M313 -16q-66 0 -115.5 17.5t-82.5 46t-49 64t-16 70.5q0 43 22.5 70t67.5 27q43 0 67 -26.5t24 -65.5q0 -26 -17.5 -46t-42.5 -22q7 -9 19.5 -16.5t28 -12t32 -7t32.5 -2.5q45 0 70 25t25 73q0 40 -6.5 67t-21.5 43.5t-39 25.5t-58 13l6 74q48 3 71 24t23 75
q0 26 -6 42.5t-17.5 25.5t-27.5 12.5t-37 3.5q-38 0 -61.5 -10.5t-40.5 -21.5q29 -2 51.5 -22.5t22.5 -52.5q0 -37 -23.5 -62.5t-65.5 -25.5t-63.5 25.5t-21.5 67.5q0 34 14.5 69.5t47 64t84.5 47t127 18.5q52 0 99 -9t82.5 -28.5t56.5 -50.5t21 -75q0 -66 -33 -101.5
t-105 -50.5q86 -8 125 -50t39 -107q0 -59 -26 -102t-69.5 -70.5t-99 -40.5t-113.5 -13z" />
    <glyph glyph-name="four" unicode="4" horiz-adv-x="728" 
d="M668 208h-79v-59q0 -45 91 -45v-104h-458v104q123 0 123 45v59h-300v92l307 382h237v-372h91zM179 310h166v210z" />
    <glyph glyph-name="five" unicode="5" horiz-adv-x="699" 
d="M374 666q24 0 55 1.5t63 4t62 7t51 10.5l2 -53q-17 -29 -47 -51.5t-66 -38t-74 -23.5t-70 -8q-27 0 -58 5t-69 21l-11 -121q23 18 65.5 28.5t96.5 10.5q75 0 126.5 -15.5t83.5 -44t46 -69.5t14 -92q0 -71 -27 -119.5t-71.5 -78.5t-102.5 -43t-120 -13q-50 0 -98.5 13.5
t-87.5 40t-63 66t-24 90.5q0 42 22.5 69t64.5 27q43 0 67 -26t24 -64q0 -32 -19 -53.5t-40 -22.5q8 -20 30 -32t64 -12q71 0 99.5 47t28.5 126q0 67 -21 94t-70 27q-45 0 -77.5 -12t-61.5 -34l-67 53l28 301q26 -4 58 -7t66 -5t67 -3t61 -1z" />
    <glyph glyph-name="six" unicode="6" horiz-adv-x="707" 
d="M526 572q-20 14 -46.5 20t-52.5 6q-38 0 -66 -10t-46.5 -39t-27.5 -82.5t-9 -141.5q10 20 28.5 36t42 27t50.5 17t53 6q44 0 80.5 -15t63 -43t41 -67.5t14.5 -88.5q0 -48 -16 -87.5t-52 -67.5t-93.5 -43t-139.5 -15q-67 0 -121.5 17.5t-93 58t-59.5 106.5t-21 162
q0 70 18 134t56.5 113t100 78t148.5 29q40 0 87 -7.5t87 -26.5t66.5 -52.5t26.5 -85.5q0 -42 -22.5 -65t-64.5 -23q-43 0 -67 22t-24 60q0 32 19 49.5t40 18.5zM360 62q19 0 32 5t21 18t11.5 36.5t3.5 59.5q0 37 -3.5 61t-11 37t-19.5 18t-30 5t-31 -4.5t-21 -16.5t-12 -33
t-4 -54q0 -42 3 -68t10 -40t19.5 -19t31.5 -5z" />
    <glyph glyph-name="seven" unicode="7" horiz-adv-x="597" 
d="M467 642q14 0 23 1.5t15.5 6t13 12.5t14.5 20l39 -66q-66 -72 -103.5 -123.5t-55.5 -97.5t-22.5 -93t-4.5 -110q0 -23 3 -48.5t3 -51.5q0 -23 -6 -42t-21 -33t-40 -22t-62 -8q-73 0 -106 34t-33 91q0 74 27.5 137t72.5 115.5t102.5 94t117.5 73.5q-29 -12 -51 -16.5
t-45 -4.5q-24 0 -45.5 5t-42 11t-40.5 11t-41 5q-12 0 -23 -1t-19.5 -5.5t-15 -14t-9.5 -26.5h-64q-2 13 -2.5 34.5t-0.5 33.5q0 27 8 51t25 42t42 28.5t60 10.5q62 0 99 -8.5t65.5 -18.5t55 -18.5t67.5 -8.5z" />
    <glyph glyph-name="eight" unicode="8" horiz-adv-x="664" 
d="M55 175q0 115 104 165q-33 29 -54.5 67t-21.5 92q0 49 19 84t52 57t78.5 32t99.5 10t99.5 -10t78.5 -30.5t52 -51.5t19 -74q0 -34 -18.5 -70.5t-63.5 -62.5q22 -15 42 -33.5t35 -42t24 -52.5t9 -64q0 -54 -21 -93.5t-57.5 -64.5t-87 -37t-110.5 -12t-111 11.5t-88 35.5
t-58 60t-21 84zM308 91q60 0 84 15t24 47q0 23 -17 40.5t-44 33.5t-61 32t-68 36q-35 -38 -35 -99q0 -45 28 -75t89 -30zM360 584q-12 0 -26.5 -1.5t-27.5 -6.5t-21.5 -15t-8.5 -26q0 -18 11 -32t29.5 -26t43.5 -23t52 -24q36 31 36 87q0 31 -21.5 49t-66.5 18z" />
    <glyph glyph-name="nine" unicode="9" horiz-adv-x="707" 
d="M180 94q20 -14 46.5 -20t52.5 -6q38 0 65 9t43.5 37.5t24 81.5t7.5 141q-20 -41 -66 -61.5t-99 -20.5q-44 0 -81 15t-63 43t-40.5 67.5t-14.5 88.5q0 48 16 87.5t52 67.5t93 43t140 15q67 0 121.5 -18t93 -60t59.5 -110.5t21 -169.5q0 -65 -18 -126t-56.5 -108.5
t-100 -76.5t-148.5 -29q-41 0 -87.5 7.5t-86.5 26.5t-66.5 52.5t-26.5 85.5q0 42 22.5 65t64.5 23q43 0 67 -22t24 -60q0 -32 -19 -49.5t-40 -18.5zM346 604q-19 0 -32 -5t-21 -18t-11.5 -36.5t-3.5 -59.5q0 -38 3.5 -61.5t11 -36.5t19.5 -18t30 -5t31 4.5t21 16.5t12 33
t4 54q0 42 -3 68t-10 40t-19.5 19t-31.5 5z" />
    <glyph glyph-name="colon" unicode=":" horiz-adv-x="376" 
d="M84 96q0 21 8 39.5t22.5 32.5t33.5 22t40 8t39.5 -8t32.5 -22t22 -32.5t8 -39.5t-8 -40t-22 -33.5t-32.5 -22.5t-39.5 -8t-40 8t-33.5 22.5t-22.5 33.5t-8 40zM84 390q0 21 8 39.5t22.5 32.5t33.5 22t40 8t39.5 -8t32.5 -22t22 -32.5t8 -39.5t-8 -40t-22 -33.5
t-32.5 -22.5t-39.5 -8t-40 8t-33.5 22.5t-22.5 33.5t-8 40z" />
    <glyph glyph-name="semicolon" unicode=";" horiz-adv-x="366" 
d="M80 390q0 21 8 39.5t22.5 32.5t33.5 22t40 8t39.5 -8t32.5 -22t22 -32.5t8 -39.5t-8 -40t-22 -33.5t-32.5 -22.5t-39.5 -8t-40 8t-33.5 22.5t-22.5 33.5t-8 40zM105 -106q35 15 55.5 38.5t20.5 50.5q0 24 -19 24q-42 0 -62 24.5t-20 69.5q0 46 29 71.5t71 25.5
q48 0 77 -31.5t29 -86.5q0 -48 -10 -83t-29 -62.5t-48 -48.5t-66 -40z" />
    <glyph glyph-name="less" unicode="&#x3c;" horiz-adv-x="475" 
d="M438 508l-215 -157l213 -161l-27 -68l-372 229l372 228z" />
    <glyph glyph-name="equal" unicode="=" horiz-adv-x="499" 
d="M462 414h-425v102h425v-102zM462 191h-425v103h425v-103z" />
    <glyph glyph-name="greater" unicode="&#x3e;" horiz-adv-x="475" 
d="M66 579l372 -228l-372 -229l-27 68l213 161l-215 157z" />
    <glyph glyph-name="question" unicode="?" horiz-adv-x="635" 
d="M321 759q51 0 99 -8.5t85.5 -29t60.5 -55.5t23 -88q0 -39 -11 -67.5t-30 -49.5t-44.5 -37.5t-53.5 -31.5q-20 -11 -40 -22.5t-36 -25.5t-26 -32.5t-10 -43.5h-63q-14 18 -19.5 36.5t-5.5 37.5q0 37 16 62.5t35 49.5t35 52t16 72q0 22 -9 38t-23 26.5t-31.5 15.5t-33.5 5
q-41 0 -59 -8.5t-32 -18.5q21 -1 40 -22.5t19 -53.5q0 -38 -24 -64t-67 -26q-42 0 -64.5 27t-22.5 69q0 34 15.5 68.5t49 62.5t85.5 45t126 17zM207 96q0 21 8 39.5t22.5 32.5t33.5 22t40 8t39.5 -8t32.5 -22t22 -32.5t8 -39.5t-8 -40t-22 -33.5t-32.5 -22.5t-39.5 -8t-40 8
t-33.5 22.5t-22.5 33.5t-8 40z" />
    <glyph glyph-name="at" unicode="@" horiz-adv-x="1035" 
d="M731 202q-1 -5 -1 -8.5v-6.5q0 -40 31 -40q15 0 32.5 9.5t33 30.5t26 55t10.5 84q0 69 -27 119.5t-71.5 84.5t-100 50.5t-112.5 16.5q-63 0 -119.5 -17.5t-99 -57t-68 -103t-25.5 -154.5q0 -85 24.5 -144t68 -96t103 -54t129.5 -17q72 0 140.5 18t116.5 53l48 -94
q-57 -47 -142 -69t-179 -22q-101 0 -187.5 24t-150 73t-99.5 124t-36 177q0 122 37.5 206t102.5 135.5t152 74.5t187 23q91 0 165.5 -23.5t128 -69.5t83 -113t29.5 -154q0 -39 -12.5 -81t-37.5 -76.5t-64 -57t-91 -22.5q-31 0 -61 14t-45 43q-17 -29 -52 -45t-75 -16
q-33 0 -63 10.5t-52.5 32t-36 55.5t-13.5 81q0 54 15.5 93t42 64.5t62 38t76.5 12.5q34 0 62.5 -13.5t45.5 -31.5l20 35h84zM560 397q-34 0 -53.5 -38t-19.5 -104q0 -33 2 -54.5t8 -34t18 -17.5t32 -5t32.5 13t20 34t10 49t2.5 58q0 56 -10.5 77.5t-41.5 21.5z" />
    <glyph glyph-name="A" unicode="A" horiz-adv-x="881" 
d="M37 105q45 0 63 7.5t24 21.5l198 609h258l184 -608q12 -30 80 -30v-105h-436v105h66q29 0 29 17q0 3 -1 6t-2 7l-15 53h-234l-14 -45q-3 -8 -3 -14q0 -24 45 -24h53v-105h-294zM282 290h175l-82 300z" />
    <glyph glyph-name="B" unicode="B" horiz-adv-x="867" 
d="M37 743h458q63 0 112 -6t82 -25.5t50 -56.5t17 -98q0 -39 -10.5 -66.5t-29.5 -46t-45.5 -29.5t-57.5 -16q91 -8 141.5 -51t50.5 -127q0 -64 -14.5 -106.5t-48 -68t-88 -36t-134.5 -10.5h-483v105q89 0 89 46v431q0 46 -89 46v115zM379 130h70q29 0 47.5 8t29 22
t14.5 32.5t4 39.5q0 24 -4 43.5t-14.5 33.5t-29 21.5t-47.5 7.5h-70v-208zM379 440h44q25 0 40 6.5t23 19t10.5 31.5t2.5 44q0 29 -17 45.5t-59 16.5h-44v-163z" />
    <glyph glyph-name="C" unicode="C" horiz-adv-x="782" 
d="M611 490q-20 144 -145 144q-47 0 -79.5 -15t-52.5 -46.5t-28.5 -80.5t-8.5 -118q0 -66 11.5 -112.5t30.5 -76t44 -42.5t52 -13q42 0 73.5 6t55 21t39.5 39.5t28 61.5l114 -23q-12 -51 -35.5 -97t-62.5 -80t-96.5 -54t-137.5 -20q-77 0 -145.5 23t-119.5 70t-81 118.5
t-30 168.5q0 100 29 174.5t77.5 123.5t111 73t129.5 24q143 0 214 -54l20 38h122v-243z" />
    <glyph glyph-name="D" unicode="D" horiz-adv-x="858" 
d="M37 743h411q99 0 169 -12.5t114 -50t64.5 -106.5t20.5 -183q0 -119 -20.5 -195t-64.5 -119.5t-114 -60t-169 -16.5h-411v105q89 0 89 46v441q0 46 -89 46v105zM379 125h85q33 0 52 13t28 44t11.5 81.5t2.5 124.5t-2.5 119.5t-11.5 70t-28 32.5t-52 8h-85v-493z" />
    <glyph glyph-name="E" unicode="E" horiz-adv-x="826" 
d="M756 518l-130 -5q0 105 -95 105h-152v-178h38q34 0 43 104h112l-15 -312h-110q-11 108 -37 108h-31v-215h116q148 0 153 167l132 -7l-24 -285h-719v105q89 0 89 46v441q0 46 -89 46v105h719v-225z" />
    <glyph glyph-name="F" unicode="F" horiz-adv-x="762" 
d="M726 518l-107 -5q-5 105 -89 105h-151v-194h41q35 0 44 104h106l-15 -332h-104q-11 108 -38 108h-34v-153q0 -46 105 -46v-105h-447v105q89 0 89 46v441q0 46 -89 46v105h689v-225z" />
    <glyph glyph-name="G" unicode="G" horiz-adv-x="879" 
d="M37 377q0 103 29.5 175.5t78 118.5t111 67t128.5 21q143 0 214 -54l20 38h122v-243l-129 -10q-20 144 -145 144q-47 0 -79.5 -14.5t-52.5 -46t-28.5 -80t-8.5 -116.5q0 -87 10.5 -137t31 -75.5t49.5 -32t65 -6.5q26 0 50.5 4t43.5 13.5t30.5 24.5t11.5 36v44q0 46 -90 46
v105h352v-105q-90 0 -90 -46v-248h-147l-20 51q-8 -12 -25 -23.5t-43.5 -21.5t-64 -16t-85.5 -6q-60 0 -120.5 18.5t-109 64t-79 121t-30.5 189.5z" />
    <glyph glyph-name="H" unicode="H" horiz-adv-x="944" 
d="M908 638q-90 0 -90 -46v-441q0 -46 90 -46v-105h-404v105q61 0 61 46v179h-186v-179q0 -46 61 -46v-105h-403v105q89 0 89 46v441q0 46 -89 46v105h403v-105q-61 0 -61 -46v-142h186v142q0 46 -61 46v105h404v-105z" />
    <glyph glyph-name="I" unicode="I" horiz-adv-x="527" 
d="M479 638q-89 0 -89 -46v-441q0 -46 89 -46v-105h-432v105q90 0 90 46v441q0 46 -90 46v105h432v-105z" />
    <glyph glyph-name="J" unicode="J" horiz-adv-x="730" 
d="M359 592q0 46 -89 46v105h432v-105q-90 0 -90 -46v-347q0 -65 -23.5 -114t-65.5 -81.5t-98.5 -49t-122.5 -16.5q-53 0 -101 13t-84.5 40.5t-58.5 69.5t-22 100q0 60 34.5 95t88.5 35q48 0 74 -23.5t26 -66.5q0 -36 -23.5 -62t-62.5 -29q7 -27 30.5 -40.5t53.5 -13.5
q27 0 46.5 8.5t31.5 31t18 60.5t6 97v293z" />
    <glyph glyph-name="K" unicode="K" horiz-adv-x="995" 
d="M469 358l-90 -72v-135q0 -46 89 -46v-105h-431v105q89 0 89 46v441q0 46 -89 46v105h431v-105q-89 0 -89 -46v-161l178 141q8 6 11 15t3 17q0 14 -9 24t-27 10h-11v105h382v-105q-34 0 -73.5 -13t-70.5 -36l-116 -88l217 -345q18 -29 35.5 -40t49.5 -11h16v-105h-434v105
h18q39 0 39 26q0 9 -8 25z" />
    <glyph glyph-name="L" unicode="L" horiz-adv-x="792" 
d="M37 105q89 0 89 46v441q0 46 -89 46v105h453v-105q-111 0 -111 -46v-467h146q52 0 81 39.5t37 127.5l112 -7l-24 -285h-694v105v0z" />
    <glyph glyph-name="M" unicode="M" horiz-adv-x="1123" 
d="M407 0l-153 582v-431q0 -46 89 -46v-105h-306v105q89 0 89 46v441q0 46 -89 46v105h430l105 -453l105 453h409v-105q-90 0 -90 -46v-441q0 -46 90 -46v-105h-419v105q89 0 89 46v431l-153 -582h-196z" />
    <glyph glyph-name="N" unicode="N" horiz-adv-x="920" 
d="M894 638q-89 0 -89 -46v-592h-299l-250 520v-369q0 -46 89 -46v-105h-308v105q89 0 89 46v441q0 46 -89 46v105h381l257 -534v383q0 46 -89 46v105h308v-105z" />
    <glyph glyph-name="O" unicode="O" horiz-adv-x="832" 
d="M795 372q0 -91 -23 -163t-70.5 -122t-120.5 -76.5t-173 -26.5q-83 0 -151 18.5t-117 62t-76 115t-27 176.5q0 96 21 171t67.5 126.5t120 78.5t177.5 27q82 0 150.5 -19t118 -64t76.5 -119t27 -185zM408 115q34 0 60.5 10t44.5 37t27 76t9 127q0 81 -9 132.5t-24.5 81
t-38 40.5t-49.5 11q-34 0 -60.5 -10.5t-45 -36.5t-28 -70t-9.5 -111q0 -92 9 -148.5t25.5 -87t39 -41t49.5 -10.5z" />
    <glyph glyph-name="P" unicode="P" horiz-adv-x="795" 
d="M379 274v-123q0 -46 111 -46v-105h-453v105q89 0 89 46v441q0 46 -89 46v105h456q66 0 116 -9t83.5 -33t50 -66t16.5 -109q0 -134 -66.5 -193t-199.5 -59h-114zM379 404h37q33 0 54 6t34 20t18 37.5t5 58.5q0 41 -23 64t-88 23h-37v-209z" />
    <glyph glyph-name="Q" unicode="Q" horiz-adv-x="849" 
d="M795 372q0 -109 -31.5 -188.5t-100.5 -130.5q16 -21 34.5 -33.5t42.5 -12.5q15 0 30.5 6.5t25.5 20.5l33 -71q-12 -32 -47 -54t-80 -22q-35 0 -63.5 8.5t-51 23t-40.5 33.5t-32 41q-50 -9 -107 -9q-83 0 -151 18.5t-117 62t-76 115t-27 176.5q0 96 21 171t67.5 126.5
t120 78.5t177.5 27q82 0 150.5 -19t118 -64t76.5 -119t27 -185zM408 303q45 0 76.5 -16.5t56.5 -42.5q4 25 6 55t2 66q0 81 -9 132.5t-24.5 81t-38 40.5t-49.5 11q-34 0 -60.5 -10.5t-45 -36.5t-28 -70t-9.5 -111q0 -51 3 -91t8 -71q18 34 48.5 48.5t63.5 14.5zM408 100
q30 0 48 7q-18 39 -37 66t-48 27q-17 0 -31 -12t-19 -33q17 -32 39 -43.5t48 -11.5z" />
    <glyph glyph-name="R" unicode="R" horiz-adv-x="954" 
d="M746 -7q-56 0 -95.5 14.5t-65 39t-37 57.5t-11.5 70v55q0 35 -3.5 57t-12 34t-24 16t-39.5 4h-79v-189q0 -46 111 -46v-105h-453v105q89 0 89 46v441q0 46 -89 46v105h521q49 0 96 -6.5t83.5 -26.5t58.5 -56.5t22 -96.5q0 -39 -12 -68.5t-31.5 -50.5t-44.5 -34t-52 -19
q54 -14 83 -52t29 -115v-69q0 -22 9 -32.5t23 -10.5q15 0 24 10.5t9 32.5v48h73v-46q0 -33 -10.5 -62t-33 -50t-56.5 -33.5t-82 -12.5zM379 440h91q27 0 44.5 5t28 16.5t14.5 31t4 48.5q0 34 -19 53t-72 19h-91v-173z" />
    <glyph glyph-name="S" unicode="S" horiz-adv-x="759" 
d="M676 503l-113 -9q-7 39 -26 65t-47.5 41.5t-66 22.5t-80.5 7q-23 0 -43 -2.5t-35 -9t-24 -18.5t-9 -30q0 -28 31 -42.5t79 -24.5t106.5 -20t113.5 -29q79 -27 119.5 -80.5t40.5 -143.5q0 -59 -21.5 -104.5t-59.5 -77t-89.5 -48t-111.5 -16.5q-61 0 -101 8t-66.5 18
t-44.5 18t-34 8q-14 0 -24.5 -8t-18.5 -28h-113v255l113 6q6 -78 70 -112t169 -34q60 0 95.5 16t35.5 62q0 28 -26.5 42.5t-68.5 23.5t-94 16.5t-103 21.5q-56 16 -93 38.5t-59 52.5t-31 68.5t-9 86.5q0 44 15 83.5t46 69t78 46.5t112 17q58 0 96.5 -7.5t64 -17t42 -17
t30.5 -7.5q20 0 31.5 7.5t23.5 25.5h100v-240z" />
    <glyph glyph-name="T" unicode="T" horiz-adv-x="849" 
d="M37 743h776v-306l-110 -3q-6 184 -104 184h-47v-467q0 -46 90 -46v-105h-432v105q89 0 89 46v467h-48q-98 0 -104 -184l-110 3v306z" />
    <glyph glyph-name="U" unicode="U" horiz-adv-x="904" 
d="M870 637q-90 0 -90 -46v-288q0 -72 -14 -131t-49 -100.5t-95 -64.5t-153 -23q-95 0 -160.5 23t-106 64.5t-58.5 100.5t-18 131v288q0 46 -89 46v105h443v-105q-57 0 -79 -11.5t-22 -34.5v-288q0 -50 5.5 -85t20.5 -57t40 -31.5t64 -9.5t66 9.5t44 31.5t24.5 57t7.5 85
v288q0 23 -22.5 34.5t-79.5 11.5v105h321v-105z" />
    <glyph glyph-name="V" unicode="V" horiz-adv-x="881" 
d="M844 638q-45 0 -63 -7.5t-24 -21.5l-198 -609h-258l-184 608q-12 30 -80 30v105h436v-105h-66q-29 0 -29 -17q0 -3 1 -6t2 -7l125 -455l138 447q3 7 3 14q0 24 -45 24h-53v105h294z" />
    <glyph glyph-name="W" unicode="W" horiz-adv-x="1194" 
d="M1158 638h-28q-21 0 -35 -8t-17 -21l-157 -609h-241l-92 361l-92 -361h-242l-143 608q-8 30 -54 30h-20v105h388v-105h-43q-27 0 -27 -17q0 -3 1 -6t2 -7l88 -455l111 447q1 5 1.5 8.5t0.5 5.5q0 24 -32 24h-31v105h335v-105h-43q-27 0 -27 -19q0 -1 2 -11l109 -455
l100 447q1 3 1 11q0 27 -40 27h-31v105h256v-105z" />
    <glyph glyph-name="X" unicode="X" horiz-adv-x="901" 
d="M587 428l183 -272q10 -15 19 -25t19.5 -16t24 -8t31.5 -2v-105h-458v105h44q26 0 26 23q0 9 -5 19t-13 21l-80 125l-92 -126q-16 -19 -16 -36q0 -13 9.5 -19.5t32.5 -6.5h30v-105h-305v105q26 1 53 10t53 39l185 216l-153 218q-9 13 -17.5 22.5t-18 15.5t-22.5 9t-32 3
v105h421v-105h-20q-29 0 -29 -22q0 -5 2 -13.5t10 -18.5l56 -87l66 78q15 18 15 37q0 26 -41 26h-14v105h298v-105q-24 0 -57 -12t-56 -37z" />
    <glyph glyph-name="Y" unicode="Y" horiz-adv-x="829" 
d="M179 105q100 0 100 46v184l-178 273q-11 17 -28.5 23.5t-44.5 6.5v105h442v-105h-39q-30 0 -30 -20q0 -6 4 -13l82 -165l96 160q4 7 4 14q0 11 -6.5 17.5t-23.5 6.5h-13v105h253v-106q-25 0 -47.5 -7.5t-30.5 -20.5l-187 -274v-184q0 -46 100 -46v-105h-453v105v0z" />
    <glyph glyph-name="Z" unicode="Z" horiz-adv-x="742" 
d="M28 0v109l339 509h-81q-35 0 -56 -6t-34 -25.5t-20 -55.5t-13 -97l-110 3v306h632v-108l-327 -510h80q35 0 60.5 6t43 25t28 55t16.5 95l114 -7l-25 -299h-647z" />
    <glyph glyph-name="bracketleft" unicode="[" horiz-adv-x="393" 
d="M357 748h-110v-864h110v-87h-248v1033h248v-82z" />
    <glyph glyph-name="backslash" unicode="\" horiz-adv-x="475" 
d="M26 744h126l294 -774h-128z" />
    <glyph glyph-name="bracketright" unicode="]" horiz-adv-x="400" 
d="M37 830h248v-1033h-248v87h110v864h-110v82z" />
    <glyph glyph-name="asciicircum" unicode="^" horiz-adv-x="403" 
d="M366 463h-88l-73 159l-74 -159h-94l141 280h48z" />
    <glyph glyph-name="underscore" unicode="_" horiz-adv-x="556" 
d="M558 -155h-566v115h566v-115z" />
    <glyph glyph-name="grave" unicode="`" horiz-adv-x="414" 
d="M41 660q0 27 19.5 42.5t54.5 15.5q30 0 59.5 -10t61 -23.5t65 -28t69.5 -22.5l-17 -48q-34 6 -67 7t-65 1q-40 0 -73 2.5t-57 9.5t-37 20t-13 34z" />
    <glyph glyph-name="a" unicode="a" horiz-adv-x="754" 
d="M327 529q47 0 95.5 -8.5t88 -29t64.5 -56t25 -89.5v-218q0 -22 7 -31t21 -9t21 11.5t7 28.5v43h69v-19q0 -51 -16 -82t-41 -48t-54.5 -23t-56.5 -6q-69 0 -104 26.5t-49 74.5q-9 -21 -24 -41t-37.5 -35.5t-54 -25t-73.5 -9.5q-92 0 -134 39t-42 101q0 36 16.5 68.5
t50.5 50.5q22 12 52.5 19.5t67 14t77.5 15.5t84 24v31q0 18 -5.5 36.5t-17.5 33t-31 23.5t-45 9q-31 0 -53.5 -4.5t-45.5 -18.5q26 -2 44.5 -13.5t18.5 -40.5q0 -34 -21 -54t-69 -20t-69.5 20.5t-21.5 65.5q0 31 17.5 57.5t50.5 46t80.5 31t107.5 11.5zM388 271
q-31 -22 -57.5 -34.5t-46 -23.5t-30.5 -25.5t-11 -39.5q0 -17 10.5 -30.5t38.5 -13.5q30 0 56 19t40 54v94z" />
    <glyph glyph-name="b" unicode="b" horiz-adv-x="727" 
d="M315 468q23 31 68.5 46t103.5 15q43 0 80 -12.5t64 -43t42.5 -82t15.5 -129.5q0 -83 -15.5 -136.5t-43 -85.5t-66 -44.5t-84.5 -12.5q-41 0 -73.5 8.5t-57 23t-40 33.5t-20.5 39l-29 -87h-175v622q0 45 -83 45v103h313v-302zM383 114q22 0 37.5 7t25 24.5t13.5 46t4 70.5
t-4 70.5t-13.5 46t-25 24.5t-37.5 7t-38.5 -7t-27 -24.5t-16 -46t-5.5 -70.5t5.5 -70.5t16 -46t27 -24.5t38.5 -7z" />
    <glyph glyph-name="c" unicode="c" horiz-adv-x="629" 
d="M479 413q-11 18 -35 25.5t-53 7.5q-24 0 -46 -11.5t-39 -33.5t-27 -53.5t-10 -71.5q0 -94 25 -138t90 -44q38 0 66.5 21t33.5 66l106 -7q-6 -35 -22.5 -69t-44.5 -61t-69.5 -44t-96.5 -17q-70 0 -127.5 14.5t-99 47t-64.5 83.5t-23 124q0 55 17 105.5t52.5 88.5t91 60.5
t132.5 22.5q53 0 99 -8.5t79.5 -28.5t52.5 -52t19 -80q0 -38 -21.5 -66t-69.5 -28q-43 0 -64 21.5t-21 51.5q0 26 18.5 49t50.5 25z" />
    <glyph glyph-name="d" unicode="d" horiz-adv-x="768" 
d="M39 256q0 74 17.5 126t49 84.5t76 47.5t98.5 15q40 0 75.5 -10t60.5 -32v135q0 45 -83 45v103h312v-621q0 -45 85 -45v-104h-279l-7 83q-12 -24 -32 -43t-45.5 -31.5t-54 -19t-58.5 -6.5q-47 0 -86.5 15t-68 47.5t-44.5 84.5t-16 126zM354 122q22 0 37.5 7t25 24.5
t13.5 46t4 70.5t-4 70.5t-13.5 46t-25 24.5t-37.5 7t-38 -7t-26.5 -24.5t-16 -46t-5.5 -70.5t5.5 -70.5t16 -46t26.5 -24.5t38 -7z" />
    <glyph glyph-name="e" unicode="e" horiz-adv-x="645" 
d="M269 244q3 -81 26 -115.5t74 -34.5q38 0 71 22.5t43 64.5l106 -7q-6 -36 -24 -70.5t-48 -61t-72.5 -43t-97.5 -16.5q-63 0 -118.5 13.5t-97 45t-65 84t-23.5 129.5q0 131 74 202.5t215 71.5q71 0 122.5 -15.5t85.5 -49.5t50 -88.5t16 -131.5h-337zM424 329
q0 18 -3.5 38.5t-12.5 38t-24 29t-37 11.5q-67 0 -76 -117h153z" />
    <glyph glyph-name="f" unicode="f" horiz-adv-x="565" 
d="M419 697q-38 0 -53 -20t-15 -56v-112h154l-5 -98q-60 6 -97 8.5t-51 2.5v-273q0 -45 128 -45v-104h-440v104q84 0 84 45v273h-85v74q17 4 37.5 7.5t45.5 5.5v73q0 103 64.5 150.5t182.5 47.5q102 0 158.5 -33t56.5 -115q0 -42 -27.5 -66.5t-69.5 -24.5q-38 0 -58.5 16.5
t-20.5 46.5q0 26 18.5 44t50.5 20q-17 29 -58 29z" />
    <glyph glyph-name="g" unicode="g" horiz-adv-x="799" 
d="M335 145q-97 0 -148 19q-1 -1 -1 -9q0 -4 4.5 -11t24.5 -15.5t62 -17t117 -15.5q82 -8 136.5 -17.5t86 -27.5t44.5 -47t13 -77t-20.5 -79t-63 -50t-106.5 -26.5t-151 -7.5q-90 0 -147 6t-90 19.5t-45 34t-12 49.5q0 47 41 69.5t101 22.5l35 -32q-26 -8 -36 -19t-10 -26
q0 -56 164 -56q57 0 93.5 2.5t57 8t28 14.5t7.5 23t-4 23t-22 16.5t-55.5 13.5t-103.5 14q-44 5 -87 13t-78 23.5t-56.5 42t-21.5 68.5q0 28 10 52.5t35 44.5q-29 23 -41 54.5t-12 76.5q0 50 18 85.5t51 58t79 33t103 10.5q51 0 94.5 -6.5t77.5 -22.5q25 23 53 31t60 8
q22 0 48.5 -7t48.5 -22.5t37 -41.5t15 -63q0 -40 -20.5 -60.5t-53.5 -20.5q-37 0 -56.5 18.5t-19.5 44.5q0 29 17 44.5t45 16.5q-7 16 -24 24t-37 8q-13 0 -26.5 -4.5t-30.5 -17.5q34 -40 34 -108q0 -58 -19.5 -94t-54.5 -56.5t-83 -27.5t-105 -7zM402 328q0 63 -16.5 87.5
t-49.5 24.5q-40 0 -53.5 -25t-13.5 -88t14.5 -89t52.5 -26q36 0 51 26.5t15 89.5z" />
    <glyph glyph-name="h" unicode="h" horiz-adv-x="847" 
d="M450 104q46 0 46 45v101q0 125 -56 125q-67 0 -89 -114v-112q0 -45 45 -45v-104h-357v104q84 0 84 45v473q0 45 -83 45v103h311v-363q66 112 211 112q162 0 162 -149v-221q0 -45 85 -45v-104h-359v104v0z" />
    <glyph glyph-name="i" unicode="i" horiz-adv-x="473" 
d="M351 149q0 -45 84 -45v-104h-396v104q84 0 84 45v211q0 46 -84 46v103h312v-360zM125 664q0 24 9 45t25 37t37 25t45 9t45 -9t37 -25t25 -37t9 -45t-9 -45t-25 -37t-37 -25t-45 -9t-45 9t-37 25t-25 37t-9 45z" />
    <glyph glyph-name="j" unicode="j" horiz-adv-x="513" 
d="M142 -153q38 0 53.5 20t15.5 56v437q0 46 -95 46v103h323v-547q0 -103 -64.5 -150.5t-182.5 -47.5q-51 0 -91 7.5t-68 25t-42.5 46t-14.5 69.5q0 42 27.5 66.5t70.5 24.5q38 0 58.5 -16.5t20.5 -46.5q0 -26 -18.5 -44t-50.5 -20q17 -29 58 -29zM214 664q0 24 9 45t25 37
t37 25t45 9t45 -9t37 -25t25 -37t9 -45t-9 -45t-25 -37t-37 -25t-45 -9t-45 9t-37 25t-25 37t-9 45z" />
    <glyph glyph-name="k" unicode="k" horiz-adv-x="894" 
d="M463 245l-112 -68v-28q0 -23 20 -34t55 -11v-104h-387v104q84 0 84 45v473q0 45 -84 45v103h312v-488l132 81q13 7 13 22q0 8 -6.5 14.5t-19.5 6.5h-46v103h415v-103h-40q-73 0 -124 -30l-31 -19l127 -219q19 -34 84 -34v-104h-380v104h18q30 0 30 21q0 6 -4 13z" />
    <glyph glyph-name="l" unicode="l" horiz-adv-x="473" 
d="M351 149q0 -45 84 -45v-104h-396v104q84 0 84 45v473q0 45 -84 45v103h312v-621z" />
    <glyph glyph-name="m" unicode="m" horiz-adv-x="1176" 
d="M791 104q42 0 42 45v96q0 125 -51 125q-60 0 -81 -114v-107q0 -23 12.5 -34t29.5 -11v-104h-311v104q42 0 42 45v96q0 125 -51 125q-60 0 -81 -114v-107q0 -45 42 -45v-104h-345v104q76 0 76 45v212q0 45 -75 45v103h302v-102q61 112 192 112q31 0 59.5 -7t50.5 -21.5
t36.5 -35.5t18.5 -49q35 64 83 88.5t111 24.5q37 0 67.5 -9.5t52.5 -28t34.5 -46.5t12.5 -65v-221q0 -45 77 -45v-104h-346v104v0z" />
    <glyph glyph-name="n" unicode="n" horiz-adv-x="847" 
d="M450 104q46 0 46 45v96q0 125 -56 125q-67 0 -89 -114v-107q0 -45 45 -45v-104h-357v104q84 0 84 45v212q0 45 -83 45v103h311v-102q66 112 211 112q162 0 162 -149v-221q0 -45 85 -45v-104h-359v104v0z" />
    <glyph glyph-name="o" unicode="o" horiz-adv-x="661" 
d="M626 257q0 -138 -78.5 -206t-218.5 -68q-57 0 -109 11t-91.5 40t-62.5 80t-23 131q0 147 75 215.5t221 68.5q59 0 111.5 -12t91.5 -42.5t61.5 -83t22.5 -134.5zM332 94q19 0 31.5 6.5t20 24t11 48.5t3.5 80q0 51 -3 83t-10.5 50t-19.5 24.5t-30 6.5q-17 0 -29.5 -6
t-20.5 -22t-12 -44.5t-4 -73.5q0 -56 2.5 -91t9.5 -54t19 -25.5t32 -6.5z" />
    <glyph glyph-name="p" unicode="p" horiz-adv-x="738" 
d="M10 -133q85 0 85 45v448q0 45 -85 45v104h279l7 -84q12 24 32 43.5t45.5 33t54 20.5t58.5 7q47 0 86.5 -15.5t68 -49t44.5 -86t16 -126.5t-17.5 -125.5t-49 -83t-76 -45.5t-98.5 -14q-39 0 -75.5 7.5t-61.5 29.5v-109q0 -45 106 -45v-103h-419v103zM386 390q-23 0 -38 -7
t-24.5 -24.5t-13.5 -46t-4 -70.5t4 -70.5t13.5 -46t24.5 -24.5t38 -7q22 0 38.5 7t27 24.5t15.5 46t5 70.5t-5 70.5t-15.5 46t-27 24.5t-38.5 7z" />
    <glyph glyph-name="q" unicode="q" horiz-adv-x="735" 
d="M311 -133q105 0 105 45v129q-22 -31 -68 -44t-104 -13q-44 0 -80.5 12t-63.5 41.5t-42 80.5t-15 129q0 82 15 136.5t43 87t66 45.5t85 13q40 0 73 -9t57.5 -24t40 -34.5t20.5 -39.5l28 87h174v-597q0 -45 85 -45v-103h-419v103zM349 395q-23 0 -38 -7t-24.5 -24.5
t-13.5 -46t-4 -70.5t4 -70.5t13.5 -46t24.5 -24.5t38 -7q22 0 38.5 7t27 24.5t15.5 46t5 70.5t-5 70.5t-15.5 46t-27 24.5t-38.5 7z" />
    <glyph glyph-name="r" unicode="r" horiz-adv-x="683" 
d="M513 423q-19 22 -43 22q-21 0 -41 -14t-36.5 -36.5t-27.5 -50.5t-14 -56v-139q0 -23 27.5 -34t67.5 -11v-104h-407v104q84 0 84 45v212q0 45 -83 45v103h311v-91q47 111 148 111q26 0 52 -8.5t46.5 -25t33.5 -41t13 -55.5q0 -55 -27.5 -92t-75.5 -37q-45 0 -68.5 22
t-23.5 57q0 25 14.5 48t49.5 26z" />
    <glyph glyph-name="s" unicode="s" horiz-adv-x="601" 
d="M527 342l-103 -6q-7 24 -22 40.5t-34.5 26t-43 13.5t-47.5 4q-62 0 -62 -32q0 -18 18.5 -28t49.5 -17.5t71.5 -14.5t84.5 -20q63 -19 93 -53t30 -94q0 -44 -18 -75.5t-45.5 -51.5t-61.5 -30t-67 -10q-54 0 -87.5 5t-54.5 10.5t-34.5 10.5t-26.5 5q-9 0 -14.5 -5.5
t-10.5 -19.5h-102v171l102 4q6 -21 25 -36t45.5 -25t57 -15t59.5 -5q55 0 55 37q0 18 -15.5 27.5t-42 15t-62.5 10.5t-76 15q-44 11 -72.5 26.5t-45.5 35.5t-24 45t-7 55q0 70 48 114t135 44q39 0 68 -5.5t49.5 -11.5t35 -11.5t25.5 -5.5q17 0 34 24h93v-167z" />
    <glyph glyph-name="t" unicode="t" horiz-adv-x="517" 
d="M317 -7q-55 0 -92 11.5t-59.5 32.5t-32 50.5t-9.5 65.5v269h-85v74q27 2 55 8t50.5 21t37 42t14.5 70v22l156 7v-157h129l-5 -98q-27 6 -58 8.5t-66 2.5v-289q0 -23 7 -34t26 -11t26 11t7 34v38h69v-19q0 -71 -39.5 -115t-130.5 -44z" />
    <glyph glyph-name="u" unicode="u" horiz-adv-x="827" 
d="M344 509v-249q0 -125 56 -125q33 0 52 28.5t30 85.5v111q0 23 -15 34.5t-49 11.5v103h287v-361q0 -45 83 -45v-103h-306v102q-33 -57 -80.5 -84.5t-120.5 -27.5q-81 0 -119 37t-38 112v222q0 45 -85 45v103h305z" />
    <glyph glyph-name="v" unicode="v" horiz-adv-x="725" 
d="M686 406q-61 0 -74 -34l-142 -372h-218l-145 371q-7 17 -25.5 26t-42.5 9v103h345v-103h-35q-26 0 -26 -22q0 -7 3 -13l96 -250l95 242q4 8 4 19q0 12 -9.5 18t-25.5 6h-31v103h231v-103z" />
    <glyph glyph-name="w" unicode="w" horiz-adv-x="1097" 
d="M1058 406q-56 0 -68 -34l-125 -372h-215l-106 250l-111 -250h-214l-115 371q-14 35 -65 35v103h338v-103h-35q-14 0 -20.5 -7.5t-6.5 -18.5q0 -5 3 -9l75 -250l112 242q4 9 4 22q0 11 -9 16t-23 5h-30v103h318v-103h-34q-24 0 -24 -20q0 -8 3 -15l102 -250l86 242
q3 10 3 19q-1 12 -10.5 18t-24.5 6h-35v103h227v-103z" />
    <glyph glyph-name="x" unicode="x" horiz-adv-x="744" 
d="M475 282l135 -143q32 -35 96 -35v-104h-376v104h16q21 0 21 14q0 8 -10 21l-44 59l-50 -51q-12 -14 -12 -25q0 -18 35 -18h7v-104h-254v104h19q22 0 44 6.5t44 26.5l126 117l-108 118q-16 17 -43.5 25.5t-72.5 8.5v103h370v-103q-10 0 -14 -4.5t-4 -10.5q0 -10 7 -17
l31 -37l35 37q6 7 6 16q0 6 -4 11t-14 5v103h227v-103q-9 0 -24.5 -2t-32 -6t-32 -10.5t-24.5 -14.5z" />
    <glyph glyph-name="y" unicode="y" horiz-adv-x="692" 
d="M314 384q0 -7 3 -13l85 -231l87 223q4 8 4 19q0 24 -35 24h-11v103h211v-103q-61 0 -74 -34l-162 -410q-17 -44 -36.5 -80.5t-45 -62.5t-59.5 -40.5t-82 -14.5q-36 0 -66.5 9t-53.5 27t-36 46t-13 66q0 42 24.5 66.5t69.5 24.5q37 0 59 -16.5t22 -46.5q0 -26 -17 -44
t-49 -20q9 -14 21.5 -21.5t44.5 -7.5q54 0 92 56l-198 468q-8 17 -27.5 26t-41.5 9v103h326v-103h-16q-26 0 -26 -22z" />
    <glyph glyph-name="z" unicode="z" horiz-adv-x="632" 
d="M39 0v75l265 331h-52q-29 0 -45.5 -2.5t-26 -13.5t-14 -32.5t-8.5 -59.5l-98 2v210h522v-74l-256 -332h53q29 0 48 2.5t32 13t20.5 31.5t14.5 59l101 -5l-21 -205h-535z" />
    <glyph glyph-name="braceleft" unicode="{" horiz-adv-x="452" 
d="M415 751q-111 0 -111 -142v-150q0 -78 -84 -117q84 -44 84 -119v-209q0 -144 111 -144v-74q-251 0 -251 177v240q0 69 -93 80v96q93 7 93 78v185q0 178 251 178v-79z" />
    <glyph glyph-name="bar" unicode="|" horiz-adv-x="315" 
d="M223 -116h-128v920h128v-920z" />
    <glyph glyph-name="braceright" unicode="}" horiz-adv-x="438" 
d="M37 830q251 0 251 -178v-185q0 -71 93 -78v-96q-93 -11 -93 -80v-240q0 -177 -251 -177v74q111 0 111 144v209q0 75 84 119q-84 39 -84 117v150q0 142 -111 142v79z" />
    <glyph glyph-name="asciitilde" unicode="~" horiz-adv-x="621" 
d="M584 392q-17 -55 -64.5 -89.5t-111.5 -34.5q-36 0 -65 11.5t-54 25.5t-48 25.5t-48 11.5q-26 0 -52 -20.5t-48 -52.5l-56 64q8 28 26.5 51.5t42 39.5t50.5 25t53 9q51 0 80 -11.5t49.5 -25t39 -25t47.5 -11.5q25 0 50 17.5t51 59.5z" />
    <glyph glyph-name="exclamdown" unicode="&#xa1;" horiz-adv-x="446" 
d="M275 335q3 -73 9.5 -124.5t14.5 -88.5t16.5 -63t15.5 -47t11.5 -40t4.5 -43q0 -101 -128 -101q-126 0 -126 101q0 24 4 43t11 40t15 47t16.5 63t16 88.5t12.5 124.5h107zM325 484q0 -21 -8 -39.5t-22.5 -32.5t-33.5 -22t-40 -8t-39.5 8t-32.5 22t-22 32.5t-8 39.5t8 40
t22 33.5t32.5 22.5t39.5 8t40 -8t33.5 -22.5t22.5 -33.5t8 -40z" />
    <glyph glyph-name="cent" unicode="&#xa2;" horiz-adv-x="675" 
d="M320 111q-65 3 -119 19t-92.5 47t-60 77.5t-21.5 111.5q0 51 15.5 97.5t50.5 82t91 57.5t136 25v115h63v-117q44 -3 87.5 -13t77.5 -29t55 -47.5t21 -68.5q0 -36 -23 -62.5t-71 -26.5q-45 0 -66.5 21t-21.5 54q0 20 14.5 40.5t47.5 25.5q-17 12 -46.5 19.5t-74.5 9.5
v-333q52 0 91 20t45 63l109 -7q-6 -32 -23.5 -62.5t-47.5 -55.5t-73.5 -42t-100.5 -21v-111h-63v111zM240 388q0 -66 21 -105t59 -56v308q-32 -17 -56 -54.5t-24 -92.5z" />
    <glyph glyph-name="sterling" unicode="&#xa3;" horiz-adv-x="850" 
d="M86 344h125q16 89 38.5 153t58 105t87 60.5t125.5 19.5q71 0 119.5 -16.5t78.5 -43t43 -58.5t13 -62q0 -39 -22 -67t-64 -28t-64.5 24.5t-22.5 56.5q0 29 19.5 52.5t50.5 26.5q-20 17 -48 25.5t-57 8.5q-40 0 -63.5 -11t-37 -30t-20 -44.5t-12 -54t-13 -59t-22.5 -58.5
h199v-65h-228q-14 -26 -29.5 -47.5t-32.5 -34.5q52 0 91.5 -16.5t74.5 -36t69.5 -36t76.5 -16.5q27 0 53 8t50 26l24 -58q-75 -84 -217 -84q-43 0 -79.5 15t-71 33.5t-69 33.5t-73.5 15q-60 0 -100.5 -28t-54.5 -65l-68 28q13 38 37.5 69.5t61.5 48.5q38 37 56 71.5t29 73.5
h-111v65z" />
    <glyph glyph-name="yen" unicode="&#xa5;" horiz-adv-x="821" 
d="M216 104q90 0 90 42v28h-163v59h163v96h-163v58h126l-127 148q-11 15 -27 21t-47 6v104h395v-104h-38q-27 0 -27 -18q0 -8 3 -12l82 -105l79 101q3 4 3 12q0 11 -11 16.5t-30 5.5h-10v104h236v-105q-37 0 -53.5 -7t-25.5 -18l-130 -149h137v-58h-170v-96h170v-59h-170
v-28q0 -42 90 -42v-104h-382v104v0z" />
    <glyph glyph-name="brokenbar" unicode="&#xa6;" horiz-adv-x="298" 
d="M212 429h-128v375h128v-375zM212 -116h-128v380h128v-380z" />
    <glyph glyph-name="section" unicode="&#xa7;" horiz-adv-x="644" 
d="M93 94l103 6q7 -24 22 -40.5t34.5 -26t43 -13.5t47.5 -4q62 0 62 32q0 19 -25.5 30t-64.5 21t-83.5 22t-83.5 33.5t-64.5 56t-25.5 88.5q0 49 27 91.5t65 70.5q-48 23 -65.5 57t-17.5 82q0 70 47.5 114t135.5 44q39 0 68 -5.5t49.5 -11.5t35 -11.5t25.5 -5.5q17 0 34 24
h93v-167l-103 -6q-7 24 -22 40.5t-34.5 26t-43 13.5t-47.5 4q-62 0 -62 -32q0 -19 25.5 -30t64.5 -21t83.5 -22t83.5 -33.5t64.5 -56t25.5 -88.5q0 -51 -27 -92.5t-65 -69.5q48 -23 65.5 -57t17.5 -82q0 -70 -47.5 -114t-135.5 -44q-39 0 -68 5.5t-49.5 11.5t-35 11.5
t-25.5 5.5q-18 0 -34 -24h-93v167zM432 327q0 30 -14 47t-38 27t-55.5 15.5t-65.5 12.5q-18 -16 -30.5 -37t-12.5 -44q0 -30 14 -47.5t38 -27.5t55 -15.5t66 -11.5q19 16 31 36.5t12 44.5z" />
    <glyph glyph-name="dieresis" unicode="&#xa8;" horiz-adv-x="426" 
d="M258 644q0 31 21.5 52.5t52.5 21.5t52.5 -21.5t21.5 -52.5t-21.5 -52.5t-52.5 -21.5t-52.5 21.5t-21.5 52.5zM23 644q0 31 21.5 52.5t52.5 21.5t52.5 -21.5t21.5 -52.5t-21.5 -52.5t-52.5 -21.5t-52.5 21.5t-21.5 52.5z" />
    <glyph glyph-name="copyright" unicode="&#xa9;" horiz-adv-x="923" 
d="M468 759q84 0 157.5 -29.5t128 -81.5t86 -123.5t31.5 -156.5q0 -79 -29.5 -148.5t-83 -122t-127.5 -83t-163 -30.5q-93 0 -168 30.5t-128.5 83t-82.5 122t-29 148.5q0 83 32 154.5t87.5 124t130 82.5t158.5 30zM469 677q-74 0 -135 -24t-104.5 -65.5t-68 -98
t-24.5 -121.5q0 -72 28.5 -128.5t75 -96t106 -60.5t122.5 -21q81 0 142.5 28t102.5 72t61.5 98.5t20.5 107.5q0 72 -27.5 129.5t-73.5 97.5t-104.5 61t-121.5 21zM568 479q-10 13 -24 19t-30 6q-42 0 -66.5 -31.5t-24.5 -85.5q0 -63 19.5 -92t64.5 -29q26 0 46.5 14.5
t24.5 43.5l63 -5q-4 -23 -14.5 -45.5t-28.5 -40.5t-45 -29.5t-64 -11.5q-93 0 -147.5 43.5t-54.5 142.5q0 35 10 67t32.5 57t58.5 39.5t87 14.5q72 0 116 -25.5t44 -85.5q0 -23 -14 -40.5t-43 -17.5q-27 0 -40 13.5t-13 31.5q0 17 11.5 31t31.5 16z" />
    <glyph glyph-name="ordfeminine" unicode="&#xaa;" horiz-adv-x="458" 
d="M205 681q29 0 57 -5.5t50 -19t35.5 -36.5t13.5 -58v-151q0 -15 4.5 -21t12.5 -6q9 0 13.5 7.5t4.5 19.5v32h35v-22q0 -26 -7.5 -43t-19.5 -27.5t-27 -15t-30 -4.5q-38 0 -56.5 20t-23.5 47q-13 -30 -44.5 -51t-79.5 -21q-57 0 -82.5 25t-25.5 67q0 40 19 59t49.5 29
t70.5 16.5t82 20.5v21q0 28 -15 50t-50 22q-49 0 -74 -20q15 -2 25.5 -9.5t10.5 -24.5q0 -20 -13 -32.5t-36 -12.5q-24 0 -37 13.5t-13 37.5q0 36 39.5 64.5t111.5 28.5zM256 517q-29 -13 -51 -21.5t-37.5 -17t-23.5 -19.5t-8 -29q0 -17 11 -28.5t34 -11.5q26 0 46 14.5
t29 36.5v76z" />
    <glyph glyph-name="guillemotleft" unicode="&#xab;" horiz-adv-x="628" 
d="M310 426l-107 -138l107 -141l-71 -81l-212 222l212 220zM600 426l-107 -138l107 -141l-71 -81l-212 222l212 220z" />
    <glyph glyph-name="registered" unicode="&#xae;" horiz-adv-x="703" 
d="M353 759q66 0 123 -22.5t99.5 -62t66.5 -94.5t24 -120q0 -62 -22.5 -115.5t-63.5 -93.5t-99 -63t-128 -23q-72 0 -130.5 23t-99.5 63t-63.5 93.5t-22.5 115.5q0 63 24.5 118t67.5 95t100.5 63t123.5 23zM353 686q-52 0 -95 -17.5t-74 -48t-48 -71.5t-17 -89q0 -54 20 -96
t52.5 -71.5t74.5 -44.5t87 -15q58 0 101.5 20.5t72 52.5t43 72.5t14.5 81.5q0 53 -19.5 95t-52 71t-74 44.5t-85.5 15.5zM453 309q-38 0 -54 22t-16 53v23q0 29 -5 37t-22 8h-26v-78q0 -19 37 -19v-43h-153v43q30 0 30 19v181q0 19 -30 19v43h175q17 0 33 -2.5t28 -10.5
t19.5 -23t7.5 -40q0 -32 -14.5 -49t-32.5 -22q18 -6 28 -21.5t10 -47.5v-27q0 -19 14 -19t14 19v19h30v-19q0 -27 -20.5 -46t-52.5 -19zM330 493h30q17 0 23.5 8.5t6.5 32.5q0 14 -6.5 22t-23.5 8h-30v-71z" />
    <glyph glyph-name="degree" unicode="&#xb0;" horiz-adv-x="463" 
d="M230 654q-40 0 -62.5 -25.5t-22.5 -57.5q0 -36 23.5 -60t61.5 -24t61.5 24t23.5 60q0 32 -23 57.5t-62 25.5zM426 571q0 -37 -15 -70t-41 -57.5t-62 -39t-78 -14.5t-77.5 14.5t-61 39t-40 57.5t-14.5 70t15 69.5t41 57t61 38.5t76 14q40 0 76 -14t62.5 -38.5t42 -57
t15.5 -69.5z" />
    <glyph glyph-name="twosuperior" unicode="&#xb2;" horiz-adv-x="430" 
d="M219 757q27 0 53.5 -5.5t46.5 -18t32.5 -34t12.5 -53.5q0 -38 -15.5 -61t-39.5 -37.5t-52 -23.5t-53.5 -18t-44.5 -20.5t-24 -31.5q16 14 33 19.5t38 5.5q18 0 31.5 -3t24.5 -7t22 -7t24 -3q14 0 24.5 6t12.5 25h28q2 -5 2 -11v-11q0 -17 -3 -31.5t-10.5 -26t-20.5 -18
t-34 -6.5q-29 0 -47.5 5t-33 11.5t-29.5 11.5t-37 5q-35 0 -50 -26h-38q8 45 25 74t37.5 48.5t42 33t39.5 27t29.5 31.5t11.5 47q0 28 -16 44t-44 16q-27 0 -40.5 -8t-19.5 -20q12 0 21 -10t9 -26q0 -18 -11 -31t-32 -13q-20 0 -31 13t-11 33q0 16 8 34.5t24.5 34.5t42.5 26
t62 10z" />
    <glyph glyph-name="threesuperior" unicode="&#xb3;" horiz-adv-x="419" 
d="M196 384q-34 0 -59.5 9t-42.5 23t-25.5 31.5t-8.5 34.5q0 21 11.5 34t31.5 13t32 -12.5t12 -32.5q0 -11 -8.5 -21t-20.5 -11q8 -12 27.5 -19t41.5 -7q65 0 65 63q0 43 -19.5 60.5t-64.5 21.5l5 33q30 2 48 15t18 44q0 27 -14.5 38.5t-43.5 11.5q-42 0 -62 -23
q15 -1 25.5 -11t10.5 -25q0 -18 -11 -30.5t-32 -12.5q-20 0 -31 12.5t-11 32.5q0 17 7.5 35t23.5 32.5t42 24t64 9.5q27 0 51.5 -5t43 -15.5t29.5 -27.5t11 -40q0 -33 -19 -52.5t-61 -27.5q48 -6 71 -29.5t23 -59.5q0 -30 -13 -52t-35 -36.5t-51 -21t-61 -6.5z" />
    <glyph glyph-name="acute" unicode="&#xb4;" horiz-adv-x="413" 
d="M368 660q0 -21 -13.5 -34t-37.5 -20t-57 -9.5t-73 -2.5q-31 0 -64.5 -1t-67.5 -7l-17 48q37 8 70 22t64 28t61 24t60 10q35 0 55 -15.5t20 -42.5z" />
    <glyph glyph-name="paragraph" unicode="&#xb6;" horiz-adv-x="613" 
d="M374 399h-83v-457h-64v457q-48 0 -84 15.5t-59.5 40t-35.5 56t-12 64.5q0 31 11 61.5t33 54t55 38t77 14.5h226v-826q0 -18 9.5 -30t29.5 -12q23 0 36.5 5t21.5 14q-16 3 -26.5 12t-10.5 26q0 14 10.5 26.5t33.5 12.5t32 -15t9 -30q0 -42 -28 -64t-82 -22q-45 0 -72 24.5
t-27 66.5v468zM291 463h83v219h-83v-219z" />
    <glyph glyph-name="periodcentered" unicode="&#xb7;" horiz-adv-x="317" 
d="M57 373q0 21 8 39.5t22.5 32.5t33.5 22t40 8t39.5 -8t32.5 -22t22 -32.5t8 -39.5t-8 -40t-22 -33.5t-32.5 -22.5t-39.5 -8t-40 8t-33.5 22.5t-22.5 33.5t-8 40z" />
    <glyph glyph-name="cedilla" unicode="&#xb8;" horiz-adv-x="241" 
d="M119 -40q42 -2 66 -25t24 -59q0 -40 -22 -66.5t-67 -26.5q-25 0 -52 12.5t-37 38.5l21 27q27 -24 53 -24q33 0 33 39q0 46 -67 56v85h48v-57z" />
    <glyph glyph-name="onesuperior" unicode="&#xb9;" horiz-adv-x="276" 
d="M200 752q-2 -14 -2.5 -23.5t-0.5 -19.5v-251q0 -23 57 -23v-42h-227v42q65 0 65 23v196h-71l-2 41q75 2 104 64z" />
    <glyph glyph-name="ordmasculine" unicode="&#xba;" horiz-adv-x="442" 
d="M394 504q0 -88 -46 -133.5t-131 -45.5q-34 0 -64.5 8t-53.5 27.5t-36.5 52.5t-13.5 83q0 185 175 185q35 0 66 -8.5t54 -28.5t36.5 -54t13.5 -86zM219 381q35 0 49 28.5t14 91.5q0 37 -4 60.5t-11.5 37.5t-19 19.5t-25.5 5.5q-33 0 -48.5 -25t-15.5 -85q0 -41 3.5 -66.5
t11 -40.5t19 -20.5t27.5 -5.5z" />
    <glyph glyph-name="guillemotright" unicode="&#xbb;" horiz-adv-x="628" 
d="M98 508l212 -220l-212 -222l-71 81l107 141l-107 138zM388 508l212 -220l-212 -222l-71 81l107 141l-107 138z" />
    <glyph glyph-name="onequarter" unicode="&#xbc;" 
d="M237 752q-2 -14 -2.5 -23.5t-0.5 -19.5v-251q0 -23 57 -23v-42h-227v42q65 0 65 23v196h-71l-2 41q75 2 104 64zM864 108h-42v-42q0 -24 48 -24v-42h-217v42q66 0 66 24v42h-173v40l177 216h99v-207h48zM611 157h108v134zM236 0h-90l552 745h94z" />
    <glyph glyph-name="onehalf" unicode="&#xbd;" 
d="M236 0h-90l552 745h94zM237 752q-2 -14 -2.5 -23.5t-0.5 -19.5v-251q0 -23 57 -23v-42h-227v42q65 0 65 23v196h-71l-2 41q75 2 104 64zM707 365q27 0 53.5 -5.5t46.5 -18t32.5 -34t12.5 -53.5q0 -37 -15.5 -60.5t-39.5 -38t-52 -23.5t-53.5 -18t-44.5 -20.5t-24 -31.5
q16 14 33 19.5t38 5.5q18 0 31.5 -3t24.5 -7t22 -7t24 -3q14 0 24.5 6t12.5 25h28q2 -5 2 -11v-11q0 -17 -3 -31.5t-10.5 -26t-20.5 -18t-34 -6.5q-29 0 -47.5 5t-33 11.5t-29.5 11.5t-37 5q-35 0 -50 -26h-38q8 45 25 74t37.5 48.5t42 33t39.5 27t29.5 31.5t11.5 47
q0 28 -16 44t-44 16q-27 0 -40.5 -8t-19.5 -20q12 0 21 -10t9 -26q0 -18 -11 -31t-32 -13q-20 0 -31 13t-11 33q0 16 8 34.5t24.5 34.5t42.5 26t62 10z" />
    <glyph glyph-name="threequarters" unicode="&#xbe;" 
d="M195 384q-34 0 -59.5 9t-42.5 23t-25.5 31.5t-8.5 34.5q0 21 11.5 34t31.5 13t32 -12.5t12 -32.5q0 -11 -8.5 -21t-20.5 -11q8 -12 27.5 -19t41.5 -7q65 0 65 63q0 43 -19.5 60.5t-64.5 21.5l5 33q30 2 48 15t18 44q0 27 -14.5 38.5t-43.5 11.5q-42 0 -62 -23
q15 -1 25.5 -11t10.5 -25q0 -18 -11 -30.5t-32 -12.5q-20 0 -31 12.5t-11 32.5q0 17 7.5 35t23.5 32.5t42 24t64 9.5q27 0 51.5 -5t43 -15.5t29.5 -27.5t11 -40q0 -33 -19 -52.5t-61 -27.5q48 -6 71 -29.5t23 -59.5q0 -30 -13 -52t-35 -36.5t-51 -21t-61 -6.5zM864 108h-42
v-42q0 -24 48 -24v-42h-217v42q66 0 66 24v42h-173v40l177 216h99v-207h48zM611 157h108v134zM236 0h-90l552 745h94z" />
    <glyph glyph-name="questiondown" unicode="&#xbf;" horiz-adv-x="617" 
d="M305 -179q-51 0 -99.5 8.5t-86 29t-60 55.5t-22.5 88q0 39 11 67.5t29.5 49.5t44 37.5t54.5 31.5q20 10 40 21.5t36 26t26 33t10 43.5h63q14 -18 19.5 -36.5t5.5 -37.5q0 -38 -16 -63t-35 -49t-35 -52.5t-16 -71.5q0 -22 9 -38t23 -26.5t31 -15.5t34 -5q41 0 59 8t32 19
q-21 1 -40 22.5t-19 53.5q0 38 24 64t67 26q42 0 64.5 -27t22.5 -69q0 -35 -15.5 -69t-49 -62t-86 -45t-125.5 -17zM419 484q0 -21 -8 -39.5t-22.5 -32.5t-33.5 -22t-40 -8t-39.5 8t-32.5 22t-22 32.5t-8 39.5t8 40t22 33.5t32.5 22.5t39.5 8t40 -8t33.5 -22.5t22.5 -33.5
t8 -40z" />
    <glyph glyph-name="Agrave" unicode="&#xc0;" horiz-adv-x="881" 
d="M37 105q45 0 63 7.5t24 21.5l198 609h258l184 -608q12 -30 80 -30v-105h-436v105h66q29 0 29 17q0 3 -1 6t-2 7l-15 53h-234l-14 -45q-3 -8 -3 -14q0 -24 45 -24h53v-105h-294zM282 290h175l-82 300zM252 894q0 27 19.5 42.5t54.5 15.5q30 0 59.5 -10t61 -23.5t65 -28
t69.5 -22.5l-17 -48q-34 6 -67 7t-65 1q-40 0 -73 2.5t-57 9.5t-37 20t-13 34z" />
    <glyph glyph-name="Aacute" unicode="&#xc1;" horiz-adv-x="881" 
d="M37 105q45 0 63 7.5t24 21.5l198 609h258l184 -608q12 -30 80 -30v-105h-436v105h66q29 0 29 17q0 3 -1 6t-2 7l-15 53h-234l-14 -45q-3 -8 -3 -14q0 -24 45 -24h53v-105h-294zM282 290h175l-82 300zM617 894q0 -21 -13.5 -34t-37.5 -20t-57 -9.5t-73 -2.5
q-31 0 -64.5 -1t-67.5 -7l-17 48q37 8 70 22t64 28t61 24t60 10q35 0 55 -15.5t20 -42.5z" />
    <glyph glyph-name="Acircumflex" unicode="&#xc2;" horiz-adv-x="881" 
d="M37 105q45 0 63 7.5t24 21.5l198 609h258l184 -608q12 -30 80 -30v-105h-436v105h66q29 0 29 17q0 3 -1 6t-2 7l-15 53h-234l-14 -45q-3 -8 -3 -14q0 -24 45 -24h53v-105h-294zM282 290h175l-82 300zM592 806l-151 45l-155 -45l-47 30l202 116l201 -117z" />
    <glyph glyph-name="Atilde" unicode="&#xc3;" horiz-adv-x="881" 
d="M37 105q45 0 63 7.5t24 21.5l198 609h258l184 -608q12 -30 80 -30v-105h-436v105h66q29 0 29 17q0 3 -1 6t-2 7l-15 53h-234l-14 -45q-3 -8 -3 -14q0 -24 45 -24h53v-105h-294zM282 290h175l-82 300zM695 921q-39 -106 -161 -106q-31 0 -56.5 6t-48.5 13t-45 13t-46 6
q-60 0 -82 -36l-70 25q61 105 164 105q37 0 63 -6t47.5 -13t41.5 -13t46 -6q47 0 74 34z" />
    <glyph glyph-name="Adieresis" unicode="&#xc4;" horiz-adv-x="881" 
d="M37 105q45 0 63 7.5t24 21.5l198 609h258l184 -608q12 -30 80 -30v-105h-436v105h66q29 0 29 17q0 3 -1 6t-2 7l-15 53h-234l-14 -45q-3 -8 -3 -14q0 -24 45 -24h53v-105h-294zM282 290h175l-82 300zM484 878q0 31 21.5 52.5t52.5 21.5t52.5 -21.5t21.5 -52.5
t-21.5 -52.5t-52.5 -21.5t-52.5 21.5t-21.5 52.5zM249 878q0 31 21.5 52.5t52.5 21.5t52.5 -21.5t21.5 -52.5t-21.5 -52.5t-52.5 -21.5t-52.5 21.5t-21.5 52.5z" />
    <glyph glyph-name="Aring" unicode="&#xc5;" horiz-adv-x="881" 
d="M37 105q45 0 63 7.5t24 21.5l198 609h258l184 -608q12 -30 80 -30v-105h-436v105h66q29 0 29 17q0 3 -1 6t-2 7l-15 53h-234l-14 -45q-3 -8 -3 -14q0 -24 45 -24h53v-105h-294zM282 290h175l-82 300zM490 848q0 23 -15 38t-36 15q-23 0 -37 -15t-14 -38q0 -26 14 -40.5
t37 -14.5q21 0 36 14.5t15 40.5zM543 848q0 -21 -8 -40.5t-22.5 -33.5t-33.5 -22.5t-40 -8.5t-39.5 8.5t-32 22.5t-21.5 33.5t-8 40.5t8 40t21.5 33.5t32 22.5t39.5 8t40 -8t33.5 -22.5t22.5 -33.5t8 -40z" />
    <glyph glyph-name="AE" unicode="&#xc6;" horiz-adv-x="1283" 
d="M285 188l-30 -45q-8 -11 -8 -19q0 -19 36 -19h54v-105h-315v105q45 0 66.5 8t36.5 30l299 443q11 17 11 28q0 24 -38 24h-79v105h895v-225l-130 -5q0 105 -95 105h-152v-178h38q34 0 43 104h112l-15 -312h-110q-11 108 -37 108h-31v-215h116q148 0 153 167l132 -7
l-24 -285h-719v105q89 0 89 46v37h-298zM352 290h231v348z" />
    <glyph glyph-name="Ccedilla" unicode="&#xc7;" horiz-adv-x="782" 
d="M611 490q-20 144 -145 144q-47 0 -79.5 -15t-52.5 -46.5t-28.5 -80.5t-8.5 -118q0 -66 11.5 -112.5t30.5 -76t44 -42.5t52 -13q42 0 73.5 6t55 21t39.5 39.5t28 61.5l114 -23q-12 -50 -34 -94.5t-59 -78.5t-91 -55t-130 -23v-24q42 -2 66 -25t24 -59q0 -40 -22 -66.5
t-67 -26.5q-25 0 -52 12.5t-37 38.5l21 27q27 -24 53 -24q33 0 33 39q0 46 -67 56v53q-72 4 -135 29t-110 72t-74 116.5t-27 161.5q0 100 29 174.5t77.5 123.5t111 73t129.5 24q143 0 214 -54l20 38h122v-243z" />
    <glyph glyph-name="Egrave" unicode="&#xc8;" horiz-adv-x="826" 
d="M756 518l-130 -5q0 105 -95 105h-152v-178h38q34 0 43 104h112l-15 -312h-110q-11 108 -37 108h-31v-215h116q148 0 153 167l132 -7l-24 -285h-719v105q89 0 89 46v441q0 46 -89 46v105h719v-225zM248 894q0 27 19.5 42.5t54.5 15.5q30 0 59.5 -10t61 -23.5t65 -28
t69.5 -22.5l-17 -48q-34 6 -67 7t-65 1q-40 0 -73 2.5t-57 9.5t-37 20t-13 34z" />
    <glyph glyph-name="Eacute" unicode="&#xc9;" horiz-adv-x="826" 
d="M756 518l-130 -5q0 105 -95 105h-152v-178h38q34 0 43 104h112l-15 -312h-110q-11 108 -37 108h-31v-215h116q148 0 153 167l132 -7l-24 -285h-719v105q89 0 89 46v441q0 46 -89 46v105h719v-225zM625 894q0 -21 -13.5 -34t-37.5 -20t-57 -9.5t-73 -2.5q-31 0 -64.5 -1
t-67.5 -7l-17 48q37 8 70 22t64 28t61 24t60 10q35 0 55 -15.5t20 -42.5z" />
    <glyph glyph-name="Ecircumflex" unicode="&#xca;" horiz-adv-x="826" 
d="M756 518l-130 -5q0 105 -95 105h-152v-178h38q34 0 43 104h112l-15 -312h-110q-11 108 -37 108h-31v-215h116q148 0 153 167l132 -7l-24 -285h-719v105q89 0 89 46v441q0 46 -89 46v105h719v-225zM575 806l-151 45l-155 -45l-47 30l202 116l201 -117z" />
    <glyph glyph-name="Edieresis" unicode="&#xcb;" horiz-adv-x="826" 
d="M756 518l-130 -5q0 105 -95 105h-152v-178h38q34 0 43 104h112l-15 -312h-110q-11 108 -37 108h-31v-215h116q148 0 153 167l132 -7l-24 -285h-719v105q89 0 89 46v441q0 46 -89 46v105h719v-225zM469 878q0 31 21.5 52.5t52.5 21.5t52.5 -21.5t21.5 -52.5t-21.5 -52.5
t-52.5 -21.5t-52.5 21.5t-21.5 52.5zM234 878q0 31 21.5 52.5t52.5 21.5t52.5 -21.5t21.5 -52.5t-21.5 -52.5t-52.5 -21.5t-52.5 21.5t-21.5 52.5z" />
    <glyph glyph-name="Igrave" unicode="&#xcc;" horiz-adv-x="527" 
d="M479 638q-89 0 -89 -46v-441q0 -46 89 -46v-105h-432v105q90 0 90 46v441q0 46 -90 46v105h432v-105zM87 894q0 27 19.5 42.5t54.5 15.5q30 0 59.5 -10t61 -23.5t65 -28t69.5 -22.5l-17 -48q-34 6 -67 7t-65 1q-40 0 -73 2.5t-57 9.5t-37 20t-13 34z" />
    <glyph glyph-name="Iacute" unicode="&#xcd;" horiz-adv-x="527" 
d="M479 638q-89 0 -89 -46v-441q0 -46 89 -46v-105h-432v105q90 0 90 46v441q0 46 -90 46v105h432v-105zM439 894q0 -21 -13.5 -34t-37.5 -20t-57 -9.5t-73 -2.5q-31 0 -64.5 -1t-67.5 -7l-17 48q37 8 70 22t64 28t61 24t60 10q35 0 55 -15.5t20 -42.5z" />
    <glyph glyph-name="Icircumflex" unicode="&#xce;" horiz-adv-x="527" 
d="M479 638q-89 0 -89 -46v-441q0 -46 89 -46v-105h-432v105q90 0 90 46v441q0 46 -90 46v105h432v-105zM415 806l-151 45l-155 -45l-47 30l202 116l201 -117z" />
    <glyph glyph-name="Idieresis" unicode="&#xcf;" horiz-adv-x="527" 
d="M479 638q-89 0 -89 -46v-441q0 -46 89 -46v-105h-432v105q90 0 90 46v441q0 46 -90 46v105h432v-105zM307 878q0 31 21.5 52.5t52.5 21.5t52.5 -21.5t21.5 -52.5t-21.5 -52.5t-52.5 -21.5t-52.5 21.5t-21.5 52.5zM72 878q0 31 21.5 52.5t52.5 21.5t52.5 -21.5t21.5 -52.5
t-21.5 -52.5t-52.5 -21.5t-52.5 21.5t-21.5 52.5z" />
    <glyph glyph-name="Eth" unicode="&#xd0;" horiz-adv-x="858" 
d="M37 743h411q99 0 169 -12.5t114 -50t64.5 -106.5t20.5 -183q0 -119 -20.5 -195t-64.5 -119.5t-114 -60t-169 -16.5h-411v105q89 0 89 46v194h-89v90h89v157q0 46 -89 46v105zM379 435h89v-90h-89v-220h85q33 0 52 13t28 44t11.5 81.5t2.5 124.5t-2.5 119.5t-11.5 70
t-28 32.5t-52 8h-85v-183z" />
    <glyph glyph-name="Ntilde" unicode="&#xd1;" horiz-adv-x="920" 
d="M894 638q-89 0 -89 -46v-592h-299l-250 520v-369q0 -46 89 -46v-105h-308v105q89 0 89 46v441q0 46 -89 46v105h381l257 -534v383q0 46 -89 46v105h308v-105zM714 921q-39 -106 -161 -106q-31 0 -56.5 6t-48.5 13t-45 13t-46 6q-60 0 -82 -36l-70 25q61 105 164 105
q37 0 63 -6t47.5 -13t41.5 -13t46 -6q47 0 74 34z" />
    <glyph glyph-name="Ograve" unicode="&#xd2;" horiz-adv-x="832" 
d="M795 372q0 -91 -23 -163t-70.5 -122t-120.5 -76.5t-173 -26.5q-83 0 -151 18.5t-117 62t-76 115t-27 176.5q0 96 21 171t67.5 126.5t120 78.5t177.5 27q82 0 150.5 -19t118 -64t76.5 -119t27 -185zM408 115q34 0 60.5 10t44.5 37t27 76t9 127q0 81 -9 132.5t-24.5 81
t-38 40.5t-49.5 11q-34 0 -60.5 -10.5t-45 -36.5t-28 -70t-9.5 -111q0 -92 9 -148.5t25.5 -87t39 -41t49.5 -10.5zM235 894q0 27 19.5 42.5t54.5 15.5q30 0 59.5 -10t61 -23.5t65 -28t69.5 -22.5l-17 -48q-34 6 -67 7t-65 1q-40 0 -73 2.5t-57 9.5t-37 20t-13 34z" />
    <glyph glyph-name="Oacute" unicode="&#xd3;" horiz-adv-x="832" 
d="M795 372q0 -91 -23 -163t-70.5 -122t-120.5 -76.5t-173 -26.5q-83 0 -151 18.5t-117 62t-76 115t-27 176.5q0 96 21 171t67.5 126.5t120 78.5t177.5 27q82 0 150.5 -19t118 -64t76.5 -119t27 -185zM408 115q34 0 60.5 10t44.5 37t27 76t9 127q0 81 -9 132.5t-24.5 81
t-38 40.5t-49.5 11q-34 0 -60.5 -10.5t-45 -36.5t-28 -70t-9.5 -111q0 -92 9 -148.5t25.5 -87t39 -41t49.5 -10.5zM595 894q0 -21 -13.5 -34t-37.5 -20t-57 -9.5t-73 -2.5q-31 0 -64.5 -1t-67.5 -7l-17 48q37 8 70 22t64 28t61 24t60 10q35 0 55 -15.5t20 -42.5z" />
    <glyph glyph-name="Ocircumflex" unicode="&#xd4;" horiz-adv-x="832" 
d="M795 372q0 -91 -23 -163t-70.5 -122t-120.5 -76.5t-173 -26.5q-83 0 -151 18.5t-117 62t-76 115t-27 176.5q0 96 21 171t67.5 126.5t120 78.5t177.5 27q82 0 150.5 -19t118 -64t76.5 -119t27 -185zM408 115q34 0 60.5 10t44.5 37t27 76t9 127q0 81 -9 132.5t-24.5 81
t-38 40.5t-49.5 11q-34 0 -60.5 -10.5t-45 -36.5t-28 -70t-9.5 -111q0 -92 9 -148.5t25.5 -87t39 -41t49.5 -10.5zM567 806l-151 45l-155 -45l-47 30l202 116l201 -117z" />
    <glyph glyph-name="Otilde" unicode="&#xd5;" horiz-adv-x="832" 
d="M795 372q0 -91 -23 -163t-70.5 -122t-120.5 -76.5t-173 -26.5q-83 0 -151 18.5t-117 62t-76 115t-27 176.5q0 96 21 171t67.5 126.5t120 78.5t177.5 27q82 0 150.5 -19t118 -64t76.5 -119t27 -185zM408 115q34 0 60.5 10t44.5 37t27 76t9 127q0 81 -9 132.5t-24.5 81
t-38 40.5t-49.5 11q-34 0 -60.5 -10.5t-45 -36.5t-28 -70t-9.5 -111q0 -92 9 -148.5t25.5 -87t39 -41t49.5 -10.5zM670 921q-39 -106 -161 -106q-31 0 -56.5 6t-48.5 13t-45 13t-46 6q-60 0 -82 -36l-70 25q61 105 164 105q37 0 63 -6t47.5 -13t41.5 -13t46 -6q47 0 74 34z
" />
    <glyph glyph-name="Odieresis" unicode="&#xd6;" horiz-adv-x="832" 
d="M795 372q0 -91 -23 -163t-70.5 -122t-120.5 -76.5t-173 -26.5q-83 0 -151 18.5t-117 62t-76 115t-27 176.5q0 96 21 171t67.5 126.5t120 78.5t177.5 27q82 0 150.5 -19t118 -64t76.5 -119t27 -185zM408 115q34 0 60.5 10t44.5 37t27 76t9 127q0 81 -9 132.5t-24.5 81
t-38 40.5t-49.5 11q-34 0 -60.5 -10.5t-45 -36.5t-28 -70t-9.5 -111q0 -92 9 -148.5t25.5 -87t39 -41t49.5 -10.5zM459 878q0 31 21.5 52.5t52.5 21.5t52.5 -21.5t21.5 -52.5t-21.5 -52.5t-52.5 -21.5t-52.5 21.5t-21.5 52.5zM224 878q0 31 21.5 52.5t52.5 21.5t52.5 -21.5
t21.5 -52.5t-21.5 -52.5t-52.5 -21.5t-52.5 21.5t-21.5 52.5z" />
    <glyph glyph-name="multiply" unicode="&#xd7;" horiz-adv-x="591" 
d="M225 355l-139 138l71 71l139 -139l138 139l71 -71l-139 -138l140 -140l-71 -70l-139 139l-140 -139l-70 70z" />
    <glyph glyph-name="Oslash" unicode="&#xd8;" horiz-adv-x="832" 
d="M669 694q60 -43 93 -120.5t33 -201.5q0 -91 -23 -163t-70.5 -122t-120.5 -76.5t-173 -26.5q-73 0 -126 13l-39 -72l-115 54l37 66q-61 42 -94.5 117.5t-33.5 193.5q0 96 21 171t67.5 126.5t120 78.5t177.5 27q35 0 67.5 -3t62.5 -11l35 63l114 -54zM285 402q0 -77 6 -129
l190 343q-23 14 -53 14q-34 0 -60.5 -10.5t-45 -36.5t-28 -70t-9.5 -111zM408 115q34 0 60.5 10t44.5 37t27 76t9 127q0 30 -1.5 55.5t-3.5 48.5l-189 -342q12 -7 25 -9.5t28 -2.5z" />
    <glyph glyph-name="Ugrave" unicode="&#xd9;" horiz-adv-x="904" 
d="M870 637q-90 0 -90 -46v-288q0 -72 -14 -131t-49 -100.5t-95 -64.5t-153 -23q-95 0 -160.5 23t-106 64.5t-58.5 100.5t-18 131v288q0 46 -89 46v105h443v-105q-57 0 -79 -11.5t-22 -34.5v-288q0 -50 5.5 -85t20.5 -57t40 -31.5t64 -9.5t66 9.5t44 31.5t24.5 57t7.5 85
v288q0 23 -22.5 34.5t-79.5 11.5v105h321v-105zM287 894q0 27 19.5 42.5t54.5 15.5q30 0 59.5 -10t61 -23.5t65 -28t69.5 -22.5l-17 -48q-34 6 -67 7t-65 1q-40 0 -73 2.5t-57 9.5t-37 20t-13 34z" />
    <glyph glyph-name="Uacute" unicode="&#xda;" horiz-adv-x="904" 
d="M870 637q-90 0 -90 -46v-288q0 -72 -14 -131t-49 -100.5t-95 -64.5t-153 -23q-95 0 -160.5 23t-106 64.5t-58.5 100.5t-18 131v288q0 46 -89 46v105h443v-105q-57 0 -79 -11.5t-22 -34.5v-288q0 -50 5.5 -85t20.5 -57t40 -31.5t64 -9.5t66 9.5t44 31.5t24.5 57t7.5 85
v288q0 23 -22.5 34.5t-79.5 11.5v105h321v-105zM668 894q0 -21 -13.5 -34t-37.5 -20t-57 -9.5t-73 -2.5q-31 0 -64.5 -1t-67.5 -7l-17 48q37 8 70 22t64 28t61 24t60 10q35 0 55 -15.5t20 -42.5z" />
    <glyph glyph-name="Ucircumflex" unicode="&#xdb;" horiz-adv-x="904" 
d="M870 637q-90 0 -90 -46v-288q0 -72 -14 -131t-49 -100.5t-95 -64.5t-153 -23q-95 0 -160.5 23t-106 64.5t-58.5 100.5t-18 131v288q0 46 -89 46v105h443v-105q-57 0 -79 -11.5t-22 -34.5v-288q0 -50 5.5 -85t20.5 -57t40 -31.5t64 -9.5t66 9.5t44 31.5t24.5 57t7.5 85
v288q0 23 -22.5 34.5t-79.5 11.5v105h321v-105zM643 806l-151 45l-155 -45l-47 30l202 116l201 -117z" />
    <glyph glyph-name="Udieresis" unicode="&#xdc;" horiz-adv-x="904" 
d="M870 637q-90 0 -90 -46v-288q0 -72 -14 -131t-49 -100.5t-95 -64.5t-153 -23q-95 0 -160.5 23t-106 64.5t-58.5 100.5t-18 131v288q0 46 -89 46v105h443v-105q-57 0 -79 -11.5t-22 -34.5v-288q0 -50 5.5 -85t20.5 -57t40 -31.5t64 -9.5t66 9.5t44 31.5t24.5 57t7.5 85
v288q0 23 -22.5 34.5t-79.5 11.5v105h321v-105zM527 878q0 31 21.5 52.5t52.5 21.5t52.5 -21.5t21.5 -52.5t-21.5 -52.5t-52.5 -21.5t-52.5 21.5t-21.5 52.5zM292 878q0 31 21.5 52.5t52.5 21.5t52.5 -21.5t21.5 -52.5t-21.5 -52.5t-52.5 -21.5t-52.5 21.5t-21.5 52.5z" />
    <glyph glyph-name="Yacute" unicode="&#xdd;" horiz-adv-x="829" 
d="M179 105q100 0 100 46v184l-178 273q-11 17 -28.5 23.5t-44.5 6.5v105h442v-105h-39q-30 0 -30 -20q0 -6 4 -13l82 -165l96 160q4 7 4 14q0 11 -6.5 17.5t-23.5 6.5h-13v105h253v-106q-25 0 -47.5 -7.5t-30.5 -20.5l-187 -274v-184q0 -46 100 -46v-105h-453v105v0z
M630 894q0 -21 -13.5 -34t-37.5 -20t-57 -9.5t-73 -2.5q-31 0 -64.5 -1t-67.5 -7l-17 48q37 8 70 22t64 28t61 24t60 10q35 0 55 -15.5t20 -42.5z" />
    <glyph glyph-name="Thorn" unicode="&#xde;" horiz-adv-x="792" 
d="M490 743v-105q-108 0 -111 -44v-40h168q46 0 85 -9.5t67 -29.5t44 -51.5t16 -76.5q0 -58 -15.5 -96.5t-44 -62t-67.5 -33.5t-86 -10h-167v-34q0 -46 111 -46v-105h-453v105q89 0 89 46v441q0 46 -89 46v105h453zM379 315h62q48 0 67 14.5t19 46.5q0 29 -17.5 38.5
t-68.5 9.5h-62v-109z" />
    <glyph glyph-name="germandbls" unicode="&#xdf;" horiz-adv-x="804" 
d="M547 455q46 -6 84 -21t65 -43.5t41.5 -73t14.5 -110.5q0 -115 -49 -169.5t-161 -54.5q-44 0 -71.5 11.5t-42.5 31t-21 44.5t-7 51l69 20q0 -19 3.5 -32.5t17.5 -13.5t18 21t4 77q0 61 -6.5 100t-20.5 61.5t-35.5 30.5t-50.5 8v104q13 1 22.5 5t15.5 16t9 34t3 58
q0 32 -9.5 48t-38.5 16q-26 0 -36 -14t-10 -50v-610h-329v104q88 0 88 45v429q0 72 28 112.5t70 60.5t90 24.5t89 4.5q45 0 95.5 -3.5t94 -20.5t72 -51.5t28.5 -95.5q0 -58 -32.5 -99t-101.5 -55z" />
    <glyph glyph-name="agrave" unicode="&#xe0;" horiz-adv-x="754" 
d="M327 529q47 0 95.5 -8.5t88 -29t64.5 -56t25 -89.5v-218q0 -22 7 -31t21 -9t21 11.5t7 28.5v43h69v-19q0 -51 -16 -82t-41 -48t-54.5 -23t-56.5 -6q-69 0 -104 26.5t-49 74.5q-9 -21 -24 -41t-37.5 -35.5t-54 -25t-73.5 -9.5q-92 0 -134 39t-42 101q0 36 16.5 68.5
t50.5 50.5q22 12 52.5 19.5t67 14t77.5 15.5t84 24v31q0 18 -5.5 36.5t-17.5 33t-31 23.5t-45 9q-31 0 -53.5 -4.5t-45.5 -18.5q26 -2 44.5 -13.5t18.5 -40.5q0 -34 -21 -54t-69 -20t-69.5 20.5t-21.5 65.5q0 31 17.5 57.5t50.5 46t80.5 31t107.5 11.5zM388 271
q-31 -22 -57.5 -34.5t-46 -23.5t-30.5 -25.5t-11 -39.5q0 -17 10.5 -30.5t38.5 -13.5q30 0 56 19t40 54v94zM168 660q0 27 19.5 42.5t54.5 15.5q30 0 59.5 -10t61 -23.5t65 -28t69.5 -22.5l-17 -48q-34 6 -67 7t-65 1q-40 0 -73 2.5t-57 9.5t-37 20t-13 34z" />
    <glyph glyph-name="aacute" unicode="&#xe1;" horiz-adv-x="754" 
d="M327 529q47 0 95.5 -8.5t88 -29t64.5 -56t25 -89.5v-218q0 -22 7 -31t21 -9t21 11.5t7 28.5v43h69v-19q0 -51 -16 -82t-41 -48t-54.5 -23t-56.5 -6q-69 0 -104 26.5t-49 74.5q-9 -21 -24 -41t-37.5 -35.5t-54 -25t-73.5 -9.5q-92 0 -134 39t-42 101q0 36 16.5 68.5
t50.5 50.5q22 12 52.5 19.5t67 14t77.5 15.5t84 24v31q0 18 -5.5 36.5t-17.5 33t-31 23.5t-45 9q-31 0 -53.5 -4.5t-45.5 -18.5q26 -2 44.5 -13.5t18.5 -40.5q0 -34 -21 -54t-69 -20t-69.5 20.5t-21.5 65.5q0 31 17.5 57.5t50.5 46t80.5 31t107.5 11.5zM388 271
q-31 -22 -57.5 -34.5t-46 -23.5t-30.5 -25.5t-11 -39.5q0 -17 10.5 -30.5t38.5 -13.5q30 0 56 19t40 54v94zM555 660q0 -21 -13.5 -34t-37.5 -20t-57 -9.5t-73 -2.5q-31 0 -64.5 -1t-67.5 -7l-17 48q37 8 70 22t64 28t61 24t60 10q35 0 55 -15.5t20 -42.5z" />
    <glyph glyph-name="acircumflex" unicode="&#xe2;" horiz-adv-x="754" 
d="M327 529q47 0 95.5 -8.5t88 -29t64.5 -56t25 -89.5v-218q0 -22 7 -31t21 -9t21 11.5t7 28.5v43h69v-19q0 -51 -16 -82t-41 -48t-54.5 -23t-56.5 -6q-69 0 -104 26.5t-49 74.5q-9 -21 -24 -41t-37.5 -35.5t-54 -25t-73.5 -9.5q-92 0 -134 39t-42 101q0 36 16.5 68.5
t50.5 50.5q22 12 52.5 19.5t67 14t77.5 15.5t84 24v31q0 18 -5.5 36.5t-17.5 33t-31 23.5t-45 9q-31 0 -53.5 -4.5t-45.5 -18.5q26 -2 44.5 -13.5t18.5 -40.5q0 -34 -21 -54t-69 -20t-69.5 20.5t-21.5 65.5q0 31 17.5 57.5t50.5 46t80.5 31t107.5 11.5zM388 271
q-31 -22 -57.5 -34.5t-46 -23.5t-30.5 -25.5t-11 -39.5q0 -17 10.5 -30.5t38.5 -13.5q30 0 56 19t40 54v94zM503 572l-151 45l-155 -45l-47 30l202 116l201 -117z" />
    <glyph glyph-name="atilde" unicode="&#xe3;" horiz-adv-x="754" 
d="M327 529q47 0 95.5 -8.5t88 -29t64.5 -56t25 -89.5v-218q0 -22 7 -31t21 -9t21 11.5t7 28.5v43h69v-19q0 -51 -16 -82t-41 -48t-54.5 -23t-56.5 -6q-69 0 -104 26.5t-49 74.5q-9 -21 -24 -41t-37.5 -35.5t-54 -25t-73.5 -9.5q-92 0 -134 39t-42 101q0 36 16.5 68.5
t50.5 50.5q22 12 52.5 19.5t67 14t77.5 15.5t84 24v31q0 18 -5.5 36.5t-17.5 33t-31 23.5t-45 9q-31 0 -53.5 -4.5t-45.5 -18.5q26 -2 44.5 -13.5t18.5 -40.5q0 -34 -21 -54t-69 -20t-69.5 20.5t-21.5 65.5q0 31 17.5 57.5t50.5 46t80.5 31t107.5 11.5zM388 271
q-31 -22 -57.5 -34.5t-46 -23.5t-30.5 -25.5t-11 -39.5q0 -17 10.5 -30.5t38.5 -13.5q30 0 56 19t40 54v94zM606 687q-39 -106 -161 -106q-31 0 -56.5 6t-48.5 13t-45 13t-46 6q-60 0 -82 -36l-70 25q61 105 164 105q37 0 63 -6t47.5 -13t41.5 -13t46 -6q47 0 74 34z" />
    <glyph glyph-name="adieresis" unicode="&#xe4;" horiz-adv-x="754" 
d="M327 529q47 0 95.5 -8.5t88 -29t64.5 -56t25 -89.5v-218q0 -22 7 -31t21 -9t21 11.5t7 28.5v43h69v-19q0 -51 -16 -82t-41 -48t-54.5 -23t-56.5 -6q-69 0 -104 26.5t-49 74.5q-9 -21 -24 -41t-37.5 -35.5t-54 -25t-73.5 -9.5q-92 0 -134 39t-42 101q0 36 16.5 68.5
t50.5 50.5q22 12 52.5 19.5t67 14t77.5 15.5t84 24v31q0 18 -5.5 36.5t-17.5 33t-31 23.5t-45 9q-31 0 -53.5 -4.5t-45.5 -18.5q26 -2 44.5 -13.5t18.5 -40.5q0 -34 -21 -54t-69 -20t-69.5 20.5t-21.5 65.5q0 31 17.5 57.5t50.5 46t80.5 31t107.5 11.5zM388 271
q-31 -22 -57.5 -34.5t-46 -23.5t-30.5 -25.5t-11 -39.5q0 -17 10.5 -30.5t38.5 -13.5q30 0 56 19t40 54v94zM392 644q0 31 21.5 52.5t52.5 21.5t52.5 -21.5t21.5 -52.5t-21.5 -52.5t-52.5 -21.5t-52.5 21.5t-21.5 52.5zM157 644q0 31 21.5 52.5t52.5 21.5t52.5 -21.5
t21.5 -52.5t-21.5 -52.5t-52.5 -21.5t-52.5 21.5t-21.5 52.5z" />
    <glyph glyph-name="aring" unicode="&#xe5;" horiz-adv-x="754" 
d="M327 529q47 0 95.5 -8.5t88 -29t64.5 -56t25 -89.5v-218q0 -22 7 -31t21 -9t21 11.5t7 28.5v43h69v-19q0 -51 -16 -82t-41 -48t-54.5 -23t-56.5 -6q-69 0 -104 26.5t-49 74.5q-9 -21 -24 -41t-37.5 -35.5t-54 -25t-73.5 -9.5q-92 0 -134 39t-42 101q0 36 16.5 68.5
t50.5 50.5q22 12 52.5 19.5t67 14t77.5 15.5t84 24v31q0 18 -5.5 36.5t-17.5 33t-31 23.5t-45 9q-31 0 -53.5 -4.5t-45.5 -18.5q26 -2 44.5 -13.5t18.5 -40.5q0 -34 -21 -54t-69 -20t-69.5 20.5t-21.5 65.5q0 31 17.5 57.5t50.5 46t80.5 31t107.5 11.5zM388 271
q-31 -22 -57.5 -34.5t-46 -23.5t-30.5 -25.5t-11 -39.5q0 -17 10.5 -30.5t38.5 -13.5q30 0 56 19t40 54v94zM400 652q0 23 -15 38t-36 15q-23 0 -37 -15t-14 -38q0 -26 14 -40.5t37 -14.5q21 0 36 14.5t15 40.5zM453 652q0 -21 -8 -40.5t-22.5 -33.5t-33.5 -22.5t-40 -8.5
t-39.5 8.5t-32 22.5t-21.5 33.5t-8 40.5t8 40t21.5 33.5t32 22.5t39.5 8t40 -8t33.5 -22.5t22.5 -33.5t8 -40z" />
    <glyph glyph-name="ae" unicode="&#xe6;" horiz-adv-x="981" 
d="M605 244q3 -81 26 -115.5t74 -34.5q38 0 71 22.5t43 64.5l106 -7q-6 -36 -24 -70.5t-48 -61t-72.5 -43t-97.5 -16.5q-96 0 -154.5 34.5t-83.5 118.5q-9 -30 -26.5 -58t-45.5 -49t-67 -33.5t-91 -12.5q-92 0 -134 39t-42 101q0 36 16.5 68.5t50.5 50.5q22 12 52.5 19.5
t67 14t77.5 15.5t84 24v31q0 18 -5.5 36.5t-17.5 33t-31 23.5t-45 9q-31 0 -53.5 -4.5t-45.5 -18.5q26 -2 44.5 -13.5t18.5 -40.5q0 -34 -21 -54t-69 -20t-69.5 20.5t-21.5 65.5q0 31 17.5 57.5t50.5 46t80.5 31t107.5 11.5q100 0 177 -69q35 35 78.5 52t108.5 17
q58 0 105 -15.5t79 -49.5t49.5 -88.5t17.5 -131.5h-337zM760 329q0 18 -3.5 38.5t-12.5 38t-24 29t-37 11.5q-67 0 -76 -117h153zM388 271q-31 -22 -57.5 -34.5t-46 -23.5t-30.5 -25.5t-11 -39.5q0 -17 10.5 -30.5t38.5 -13.5q30 0 56 19t40 54v94z" />
    <glyph glyph-name="ccedilla" unicode="&#xe7;" horiz-adv-x="629" 
d="M479 413q-11 18 -35 25.5t-53 7.5q-24 0 -46 -11.5t-39 -33.5t-27 -53.5t-10 -71.5q0 -94 25 -138t90 -44q38 0 66.5 21t33.5 66l106 -7q-6 -35 -22 -68.5t-43.5 -60.5t-67.5 -44t-94 -18v-23q42 -2 66 -25t24 -59q0 -40 -22 -66.5t-67 -26.5q-25 0 -52 12.5t-37 38.5
l21 27q27 -24 53 -24q33 0 33 39q0 46 -67 56v53q-61 4 -111 21t-86 49.5t-55.5 81t-19.5 115.5q0 55 17 105.5t52.5 88.5t91 60.5t132.5 22.5q53 0 99 -8.5t79.5 -28.5t52.5 -52t19 -80q0 -38 -21.5 -66t-69.5 -28q-43 0 -64 21.5t-21 51.5q0 26 18.5 49t50.5 25z" />
    <glyph glyph-name="egrave" unicode="&#xe8;" horiz-adv-x="645" 
d="M269 244q3 -81 26 -115.5t74 -34.5q38 0 71 22.5t43 64.5l106 -7q-6 -36 -24 -70.5t-48 -61t-72.5 -43t-97.5 -16.5q-63 0 -118.5 13.5t-97 45t-65 84t-23.5 129.5q0 131 74 202.5t215 71.5q71 0 122.5 -15.5t85.5 -49.5t50 -88.5t16 -131.5h-337zM424 329
q0 18 -3.5 38.5t-12.5 38t-24 29t-37 11.5q-67 0 -76 -117h153zM130 660q0 27 19.5 42.5t54.5 15.5q30 0 59.5 -10t61 -23.5t65 -28t69.5 -22.5l-17 -48q-34 6 -67 7t-65 1q-40 0 -73 2.5t-57 9.5t-37 20t-13 34z" />
    <glyph glyph-name="eacute" unicode="&#xe9;" horiz-adv-x="645" 
d="M269 244q3 -81 26 -115.5t74 -34.5q38 0 71 22.5t43 64.5l106 -7q-6 -36 -24 -70.5t-48 -61t-72.5 -43t-97.5 -16.5q-63 0 -118.5 13.5t-97 45t-65 84t-23.5 129.5q0 131 74 202.5t215 71.5q71 0 122.5 -15.5t85.5 -49.5t50 -88.5t16 -131.5h-337zM424 329
q0 18 -3.5 38.5t-12.5 38t-24 29t-37 11.5q-67 0 -76 -117h153zM527 660q0 -21 -13.5 -34t-37.5 -20t-57 -9.5t-73 -2.5q-31 0 -64.5 -1t-67.5 -7l-17 48q37 8 70 22t64 28t61 24t60 10q35 0 55 -15.5t20 -42.5z" />
    <glyph glyph-name="ecircumflex" unicode="&#xea;" horiz-adv-x="645" 
d="M269 244q3 -81 26 -115.5t74 -34.5q38 0 71 22.5t43 64.5l106 -7q-6 -36 -24 -70.5t-48 -61t-72.5 -43t-97.5 -16.5q-63 0 -118.5 13.5t-97 45t-65 84t-23.5 129.5q0 131 74 202.5t215 71.5q71 0 122.5 -15.5t85.5 -49.5t50 -88.5t16 -131.5h-337zM424 329
q0 18 -3.5 38.5t-12.5 38t-24 29t-37 11.5q-67 0 -76 -117h153zM474 572l-151 45l-155 -45l-47 30l202 116l201 -117z" />
    <glyph glyph-name="edieresis" unicode="&#xeb;" horiz-adv-x="645" 
d="M269 244q3 -81 26 -115.5t74 -34.5q38 0 71 22.5t43 64.5l106 -7q-6 -36 -24 -70.5t-48 -61t-72.5 -43t-97.5 -16.5q-63 0 -118.5 13.5t-97 45t-65 84t-23.5 129.5q0 131 74 202.5t215 71.5q71 0 122.5 -15.5t85.5 -49.5t50 -88.5t16 -131.5h-337zM424 329
q0 18 -3.5 38.5t-12.5 38t-24 29t-37 11.5q-67 0 -76 -117h153zM383 644q0 31 21.5 52.5t52.5 21.5t52.5 -21.5t21.5 -52.5t-21.5 -52.5t-52.5 -21.5t-52.5 21.5t-21.5 52.5zM148 644q0 31 21.5 52.5t52.5 21.5t52.5 -21.5t21.5 -52.5t-21.5 -52.5t-52.5 -21.5t-52.5 21.5
t-21.5 52.5z" />
    <glyph glyph-name="igrave" unicode="&#xec;" horiz-adv-x="473" 
d="M351 149q0 -45 84 -45v-104h-396v104q84 0 84 45v211q0 46 -84 46v103h312v-360zM28 660q0 27 19.5 42.5t54.5 15.5q30 0 59.5 -10t61 -23.5t65 -28t69.5 -22.5l-17 -48q-34 6 -67 7t-65 1q-40 0 -73 2.5t-57 9.5t-37 20t-13 34z" />
    <glyph glyph-name="iacute" unicode="&#xed;" horiz-adv-x="473" 
d="M351 149q0 -45 84 -45v-104h-396v104q84 0 84 45v211q0 46 -84 46v103h312v-360zM401 660q0 -21 -13.5 -34t-37.5 -20t-57 -9.5t-73 -2.5q-31 0 -64.5 -1t-67.5 -7l-17 48q37 8 70 22t64 28t61 24t60 10q35 0 55 -15.5t20 -42.5z" />
    <glyph glyph-name="icircumflex" unicode="&#xee;" horiz-adv-x="473" 
d="M351 149q0 -45 84 -45v-104h-396v104q84 0 84 45v211q0 46 -84 46v103h312v-360zM376 572l-151 45l-155 -45l-47 30l202 116l201 -117z" />
    <glyph glyph-name="idieresis" unicode="&#xef;" horiz-adv-x="473" 
d="M351 149q0 -45 84 -45v-104h-396v104q84 0 84 45v211q0 46 -84 46v103h312v-360zM263 644q0 31 21.5 52.5t52.5 21.5t52.5 -21.5t21.5 -52.5t-21.5 -52.5t-52.5 -21.5t-52.5 21.5t-21.5 52.5zM28 644q0 31 21.5 52.5t52.5 21.5t52.5 -21.5t21.5 -52.5t-21.5 -52.5
t-52.5 -21.5t-52.5 21.5t-21.5 52.5z" />
    <glyph glyph-name="eth" unicode="&#xf0;" horiz-adv-x="661" 
d="M562 711l-70 -50q63 -64 98.5 -158t35.5 -215q0 -88 -20 -146.5t-58.5 -94t-93.5 -50t-125 -14.5q-57 0 -109 11.5t-91.5 39t-62.5 74t-23 117.5q0 65 15.5 110.5t44 74.5t68.5 42t89 13q62 0 142 -20q-2 36 -8.5 70t-18.5 63l-80 -58l-38 60l84 60q-32 41 -78 48l31 81
q80 -15 143 -61l86 62zM332 94q19 0 31.5 3.5t20 17.5t11 41.5t3.5 76.5q0 51 -3 79.5t-10.5 43t-19.5 18t-30 3.5q-17 0 -29.5 -3t-20.5 -15t-12 -37.5t-4 -70.5q0 -56 2.5 -87.5t9.5 -47t19 -19t32 -3.5z" />
    <glyph glyph-name="ntilde" unicode="&#xf1;" horiz-adv-x="847" 
d="M450 104q46 0 46 45v96q0 125 -56 125q-67 0 -89 -114v-107q0 -45 45 -45v-104h-357v104q84 0 84 45v212q0 45 -83 45v103h311v-102q66 112 211 112q162 0 162 -149v-221q0 -45 85 -45v-104h-359v104v0zM678 687q-39 -106 -161 -106q-31 0 -56.5 6t-48.5 13t-45 13t-46 6
q-60 0 -82 -36l-70 25q61 105 164 105q37 0 63 -6t47.5 -13t41.5 -13t46 -6q47 0 74 34z" />
    <glyph glyph-name="ograve" unicode="&#xf2;" horiz-adv-x="661" 
d="M626 257q0 -138 -78.5 -206t-218.5 -68q-57 0 -109 11t-91.5 40t-62.5 80t-23 131q0 147 75 215.5t221 68.5q59 0 111.5 -12t91.5 -42.5t61.5 -83t22.5 -134.5zM332 94q19 0 31.5 6.5t20 24t11 48.5t3.5 80q0 51 -3 83t-10.5 50t-19.5 24.5t-30 6.5q-17 0 -29.5 -6
t-20.5 -22t-12 -44.5t-4 -73.5q0 -56 2.5 -91t9.5 -54t19 -25.5t32 -6.5zM155 660q0 27 19.5 42.5t54.5 15.5q30 0 59.5 -10t61 -23.5t65 -28t69.5 -22.5l-17 -48q-34 6 -67 7t-65 1q-40 0 -73 2.5t-57 9.5t-37 20t-13 34z" />
    <glyph glyph-name="oacute" unicode="&#xf3;" horiz-adv-x="661" 
d="M626 257q0 -138 -78.5 -206t-218.5 -68q-57 0 -109 11t-91.5 40t-62.5 80t-23 131q0 147 75 215.5t221 68.5q59 0 111.5 -12t91.5 -42.5t61.5 -83t22.5 -134.5zM332 94q19 0 31.5 6.5t20 24t11 48.5t3.5 80q0 51 -3 83t-10.5 50t-19.5 24.5t-30 6.5q-17 0 -29.5 -6
t-20.5 -22t-12 -44.5t-4 -73.5q0 -56 2.5 -91t9.5 -54t19 -25.5t32 -6.5zM519 660q0 -21 -13.5 -34t-37.5 -20t-57 -9.5t-73 -2.5q-31 0 -64.5 -1t-67.5 -7l-17 48q37 8 70 22t64 28t61 24t60 10q35 0 55 -15.5t20 -42.5z" />
    <glyph glyph-name="ocircumflex" unicode="&#xf4;" horiz-adv-x="661" 
d="M626 257q0 -138 -78.5 -206t-218.5 -68q-57 0 -109 11t-91.5 40t-62.5 80t-23 131q0 147 75 215.5t221 68.5q59 0 111.5 -12t91.5 -42.5t61.5 -83t22.5 -134.5zM332 94q19 0 31.5 6.5t20 24t11 48.5t3.5 80q0 51 -3 83t-10.5 50t-19.5 24.5t-30 6.5q-17 0 -29.5 -6
t-20.5 -22t-12 -44.5t-4 -73.5q0 -56 2.5 -91t9.5 -54t19 -25.5t32 -6.5zM482 572l-151 45l-155 -45l-47 30l202 116l201 -117z" />
    <glyph glyph-name="otilde" unicode="&#xf5;" horiz-adv-x="661" 
d="M626 257q0 -138 -78.5 -206t-218.5 -68q-57 0 -109 11t-91.5 40t-62.5 80t-23 131q0 147 75 215.5t221 68.5q59 0 111.5 -12t91.5 -42.5t61.5 -83t22.5 -134.5zM332 94q19 0 31.5 6.5t20 24t11 48.5t3.5 80q0 51 -3 83t-10.5 50t-19.5 24.5t-30 6.5q-17 0 -29.5 -6
t-20.5 -22t-12 -44.5t-4 -73.5q0 -56 2.5 -91t9.5 -54t19 -25.5t32 -6.5zM585 687q-39 -106 -161 -106q-31 0 -56.5 6t-48.5 13t-45 13t-46 6q-60 0 -82 -36l-70 25q61 105 164 105q37 0 63 -6t47.5 -13t41.5 -13t46 -6q47 0 74 34z" />
    <glyph glyph-name="odieresis" unicode="&#xf6;" horiz-adv-x="661" 
d="M626 257q0 -138 -78.5 -206t-218.5 -68q-57 0 -109 11t-91.5 40t-62.5 80t-23 131q0 147 75 215.5t221 68.5q59 0 111.5 -12t91.5 -42.5t61.5 -83t22.5 -134.5zM332 94q19 0 31.5 6.5t20 24t11 48.5t3.5 80q0 51 -3 83t-10.5 50t-19.5 24.5t-30 6.5q-17 0 -29.5 -6
t-20.5 -22t-12 -44.5t-4 -73.5q0 -56 2.5 -91t9.5 -54t19 -25.5t32 -6.5zM374 644q0 31 21.5 52.5t52.5 21.5t52.5 -21.5t21.5 -52.5t-21.5 -52.5t-52.5 -21.5t-52.5 21.5t-21.5 52.5zM139 644q0 31 21.5 52.5t52.5 21.5t52.5 -21.5t21.5 -52.5t-21.5 -52.5t-52.5 -21.5
t-52.5 21.5t-21.5 52.5z" />
    <glyph glyph-name="divide" unicode="&#xf7;" horiz-adv-x="567" 
d="M530 305h-493v100h493v-100zM218 542q0 28 19.5 47.5t47.5 19.5t47.5 -19.5t19.5 -47.5t-19.5 -47.5t-47.5 -19.5t-47.5 19.5t-19.5 47.5zM218 164q0 28 19.5 47.5t47.5 19.5t47.5 -19.5t19.5 -47.5t-19.5 -47.5t-47.5 -19.5t-47.5 19.5t-19.5 47.5z" />
    <glyph glyph-name="oslash" unicode="&#xf8;" horiz-adv-x="661" 
d="M626 257q0 -138 -78.5 -206t-218.5 -68q-51 0 -97 9l-36 -67l-92 43l33 60q-43 29 -68.5 80.5t-25.5 136.5q0 147 75 215.5t221 68.5q19 0 37.5 -1t36.5 -4l42 74l91 -43l-35 -61q54 -28 84.5 -84t30.5 -153zM332 89q19 0 33 7.5t23.5 26t14.5 50t5 80.5q0 39 -3 68
l-119 -214q9 -11 20.5 -14.5t25.5 -3.5zM259 230l104 186q-14 6 -28 6q-17 0 -31 -6.5t-24 -24t-15.5 -46.5t-5.5 -74v-41z" />
    <glyph glyph-name="ugrave" unicode="&#xf9;" horiz-adv-x="827" 
d="M344 509v-249q0 -125 56 -125q33 0 52 28.5t30 85.5v111q0 23 -15 34.5t-49 11.5v103h287v-361q0 -45 83 -45v-103h-306v102q-33 -57 -80.5 -84.5t-120.5 -27.5q-81 0 -119 37t-38 112v222q0 45 -85 45v103h305zM217 660q0 27 19.5 42.5t54.5 15.5q30 0 59.5 -10
t61 -23.5t65 -28t69.5 -22.5l-17 -48q-34 6 -67 7t-65 1q-40 0 -73 2.5t-57 9.5t-37 20t-13 34z" />
    <glyph glyph-name="uacute" unicode="&#xfa;" horiz-adv-x="827" 
d="M344 509v-249q0 -125 56 -125q33 0 52 28.5t30 85.5v111q0 23 -15 34.5t-49 11.5v103h287v-361q0 -45 83 -45v-103h-306v102q-33 -57 -80.5 -84.5t-120.5 -27.5q-81 0 -119 37t-38 112v222q0 45 -85 45v103h305zM586 660q0 -21 -13.5 -34t-37.5 -20t-57 -9.5t-73 -2.5
q-31 0 -64.5 -1t-67.5 -7l-17 48q37 8 70 22t64 28t61 24t60 10q35 0 55 -15.5t20 -42.5z" />
    <glyph glyph-name="ucircumflex" unicode="&#xfb;" horiz-adv-x="827" 
d="M344 509v-249q0 -125 56 -125q33 0 52 28.5t30 85.5v111q0 23 -15 34.5t-49 11.5v103h287v-361q0 -45 83 -45v-103h-306v102q-33 -57 -80.5 -84.5t-120.5 -27.5q-81 0 -119 37t-38 112v222q0 45 -85 45v103h305zM556 572l-151 45l-155 -45l-47 30l202 116l201 -117z" />
    <glyph glyph-name="udieresis" unicode="&#xfc;" horiz-adv-x="827" 
d="M344 509v-249q0 -125 56 -125q33 0 52 28.5t30 85.5v111q0 23 -15 34.5t-49 11.5v103h287v-361q0 -45 83 -45v-103h-306v102q-33 -57 -80.5 -84.5t-120.5 -27.5q-81 0 -119 37t-38 112v222q0 45 -85 45v103h305zM444 644q0 31 21.5 52.5t52.5 21.5t52.5 -21.5t21.5 -52.5
t-21.5 -52.5t-52.5 -21.5t-52.5 21.5t-21.5 52.5zM209 644q0 31 21.5 52.5t52.5 21.5t52.5 -21.5t21.5 -52.5t-21.5 -52.5t-52.5 -21.5t-52.5 21.5t-21.5 52.5z" />
    <glyph glyph-name="yacute" unicode="&#xfd;" horiz-adv-x="692" 
d="M314 384q0 -7 3 -13l85 -231l87 223q4 8 4 19q0 24 -35 24h-11v103h211v-103q-61 0 -74 -34l-162 -410q-17 -44 -36.5 -80.5t-45 -62.5t-59.5 -40.5t-82 -14.5q-36 0 -66.5 9t-53.5 27t-36 46t-13 66q0 42 24.5 66.5t69.5 24.5q37 0 59 -16.5t22 -46.5q0 -26 -17 -44
t-49 -20q9 -14 21.5 -21.5t44.5 -7.5q54 0 92 56l-198 468q-8 17 -27.5 26t-41.5 9v103h326v-103h-16q-26 0 -26 -22zM558 660q0 -21 -13.5 -34t-37.5 -20t-57 -9.5t-73 -2.5q-31 0 -64.5 -1t-67.5 -7l-17 48q37 8 70 22t64 28t61 24t60 10q35 0 55 -15.5t20 -42.5z" />
    <glyph glyph-name="thorn" unicode="&#xfe;" horiz-adv-x="724" 
d="M317 468q23 31 68.5 46t103.5 15q43 0 80 -12.5t64 -43t42.5 -82t15.5 -129.5q0 -57 -11.5 -108.5t-39 -90.5t-73.5 -61.5t-115 -22.5q-39 0 -75.5 10t-61.5 32v-109q0 -45 106 -45v-103h-419v103q85 0 85 45v710q0 45 -83 45v103h313v-302zM378 90q31 0 48.5 17t26 42.5
t10.5 56t2 56.5q0 42 -4 70.5t-13.5 46t-25 24.5t-37.5 7t-38.5 -7t-27 -24.5t-16 -46t-5.5 -70.5q0 -36 4 -67.5t13 -55t24.5 -36.5t38.5 -13z" />
    <glyph glyph-name="ydieresis" unicode="&#xff;" horiz-adv-x="692" 
d="M314 384q0 -7 3 -13l85 -231l87 223q4 8 4 19q0 24 -35 24h-11v103h211v-103q-61 0 -74 -34l-162 -410q-17 -44 -36.5 -80.5t-45 -62.5t-59.5 -40.5t-82 -14.5q-36 0 -66.5 9t-53.5 27t-36 46t-13 66q0 42 24.5 66.5t69.5 24.5q37 0 59 -16.5t22 -46.5q0 -26 -17 -44
t-49 -20q9 -14 21.5 -21.5t44.5 -7.5q54 0 92 56l-198 468q-8 17 -27.5 26t-41.5 9v103h326v-103h-16q-26 0 -26 -22zM434 644q0 31 21.5 52.5t52.5 21.5t52.5 -21.5t21.5 -52.5t-21.5 -52.5t-52.5 -21.5t-52.5 21.5t-21.5 52.5zM199 644q0 31 21.5 52.5t52.5 21.5
t52.5 -21.5t21.5 -52.5t-21.5 -52.5t-52.5 -21.5t-52.5 21.5t-21.5 52.5z" />
    <glyph glyph-name="dotlessi" unicode="&#x131;" horiz-adv-x="473" 
d="M351 149q0 -45 84 -45v-104h-396v104q84 0 84 45v211q0 46 -84 46v103h312v-360z" />
    <glyph glyph-name="Lslash" unicode="&#x141;" horiz-adv-x="804" 
d="M126 369v223q0 46 -89 46v105h453v-105q-111 0 -111 -46v-119l178 73l27 -82l-205 -84v-255h146q52 0 81 39.5t37 127.5l112 -7l-24 -285h-694v105q89 0 89 46v125l-46 -19l-23 84z" />
    <glyph glyph-name="lslash" unicode="&#x142;" horiz-adv-x="496" 
d="M354 519l98 42l27 -82l-125 -53v-277q0 -45 84 -45v-104h-396v104q84 0 84 45v180l-81 -34l-23 84l104 44v199q0 45 -84 45v103h312v-251z" />
    <glyph glyph-name="OE" unicode="&#x152;" horiz-adv-x="1243" 
d="M1173 518l-130 -5q0 105 -95 105h-152v-178h38q34 0 43 104h112l-15 -312h-110q-11 108 -37 108h-31v-215h116q148 0 153 167l132 -7l-24 -285h-516q-45 0 -75 -2.5t-56 -5.5t-53 -5.5t-65 -2.5q-83 0 -151 18.5t-117 62t-76 115t-27 176.5q0 96 21 171t67.5 126.5
t120 78.5t177.5 27q31 0 55.5 -2.5t49.5 -5.5t55 -5.5t74 -2.5h516v-225zM408 115q34 0 60.5 10t44.5 37t27 76t9 127q0 81 -9 132.5t-24.5 81t-38 40.5t-49.5 11q-34 0 -60.5 -10.5t-45 -36.5t-28 -70t-9.5 -111q0 -92 9 -148.5t25.5 -87t39 -41t49.5 -10.5z" />
    <glyph glyph-name="oe" unicode="&#x153;" horiz-adv-x="1001" 
d="M625 244q3 -81 26 -115.5t74 -34.5q38 0 71 22.5t43 64.5l106 -7q-6 -36 -24 -70.5t-48 -61t-72.5 -43t-97.5 -16.5q-57 0 -105.5 11t-84.5 36q-68 -47 -184 -47q-57 0 -109 11t-91.5 40t-62.5 80t-23 131q0 147 75 215.5t221 68.5q54 0 99 -10t80 -34q32 21 74 32.5
t96 11.5q71 0 122.5 -15.5t85.5 -49.5t50 -88.5t16 -131.5h-337zM332 94q19 0 31.5 6.5t20 24t11 48.5t3.5 80q0 51 -3 83t-10.5 50t-19.5 24.5t-30 6.5q-17 0 -29.5 -6t-20.5 -22t-12 -44.5t-4 -73.5q0 -56 2.5 -91t9.5 -54t19 -25.5t32 -6.5zM780 329q0 18 -3.5 38.5
t-12.5 38t-24 29t-37 11.5q-67 0 -76 -117h153z" />
    <glyph glyph-name="Scaron" unicode="&#x160;" horiz-adv-x="759" 
d="M676 503l-113 -9q-7 39 -26 65t-47.5 41.5t-66 22.5t-80.5 7q-23 0 -43 -2.5t-35 -9t-24 -18.5t-9 -30q0 -28 31 -42.5t79 -24.5t106.5 -20t113.5 -29q79 -27 119.5 -80.5t40.5 -143.5q0 -59 -21.5 -104.5t-59.5 -77t-89.5 -48t-111.5 -16.5q-61 0 -101 8t-66.5 18
t-44.5 18t-34 8q-14 0 -24.5 -8t-18.5 -28h-113v255l113 6q6 -78 70 -112t169 -34q60 0 95.5 16t35.5 62q0 28 -26.5 42.5t-68.5 23.5t-94 16.5t-103 21.5q-56 16 -93 38.5t-59 52.5t-31 68.5t-9 86.5q0 44 15 83.5t46 69t78 46.5t112 17q58 0 96.5 -7.5t64 -17t42 -17
t30.5 -7.5q20 0 31.5 7.5t23.5 25.5h100v-240zM228 952l151 -45l155 45l47 -30l-202 -116l-201 117z" />
    <glyph glyph-name="scaron" unicode="&#x161;" horiz-adv-x="601" 
d="M527 342l-103 -6q-7 24 -22 40.5t-34.5 26t-43 13.5t-47.5 4q-62 0 -62 -32q0 -18 18.5 -28t49.5 -17.5t71.5 -14.5t84.5 -20q63 -19 93 -53t30 -94q0 -44 -18 -75.5t-45.5 -51.5t-61.5 -30t-67 -10q-54 0 -87.5 5t-54.5 10.5t-34.5 10.5t-26.5 5q-9 0 -14.5 -5.5
t-10.5 -19.5h-102v171l102 4q6 -21 25 -36t45.5 -25t57 -15t59.5 -5q55 0 55 37q0 18 -15.5 27.5t-42 15t-62.5 10.5t-76 15q-44 11 -72.5 26.5t-45.5 35.5t-24 45t-7 55q0 70 48 114t135 44q39 0 68 -5.5t49.5 -11.5t35 -11.5t25.5 -5.5q17 0 34 24h93v-167zM149 718
l151 -45l155 45l47 -30l-202 -116l-201 117z" />
    <glyph glyph-name="Ydieresis" unicode="&#x178;" horiz-adv-x="829" 
d="M179 105q100 0 100 46v184l-178 273q-11 17 -28.5 23.5t-44.5 6.5v105h442v-105h-39q-30 0 -30 -20q0 -6 4 -13l82 -165l96 160q4 7 4 14q0 11 -6.5 17.5t-23.5 6.5h-13v105h253v-106q-25 0 -47.5 -7.5t-30.5 -20.5l-187 -274v-184q0 -46 100 -46v-105h-453v105v0z
M497 878q0 31 21.5 52.5t52.5 21.5t52.5 -21.5t21.5 -52.5t-21.5 -52.5t-52.5 -21.5t-52.5 21.5t-21.5 52.5zM262 878q0 31 21.5 52.5t52.5 21.5t52.5 -21.5t21.5 -52.5t-21.5 -52.5t-52.5 -21.5t-52.5 21.5t-21.5 52.5z" />
    <glyph glyph-name="Zcaron" unicode="&#x17d;" horiz-adv-x="742" 
d="M28 0v109l339 509h-81q-35 0 -56 -6t-34 -25.5t-20 -55.5t-13 -97l-110 3v306h632v-108l-327 -510h80q35 0 60.5 6t43 25t28 55t16.5 95l114 -7l-25 -299h-647zM219 952l151 -45l155 45l47 -30l-202 -116l-201 117z" />
    <glyph glyph-name="zcaron" unicode="&#x17e;" horiz-adv-x="632" 
d="M39 0v75l265 331h-52q-29 0 -45.5 -2.5t-26 -13.5t-14 -32.5t-8.5 -59.5l-98 2v210h522v-74l-256 -332h53q29 0 48 2.5t32 13t20.5 31.5t14.5 59l101 -5l-21 -205h-535zM164 718l151 -45l155 45l47 -30l-202 -116l-201 117z" />
    <glyph glyph-name="circumflex" unicode="&#x2c6;" horiz-adv-x="474" 
d="M389 572l-151 45l-155 -45l-47 30l202 116l201 -117z" />
    <glyph glyph-name="caron" unicode="&#x2c7;" horiz-adv-x="474" 
d="M85 718l151 -45l155 45l47 -30l-202 -116l-201 117z" />
    <glyph glyph-name="ring" unicode="&#x2da;" horiz-adv-x="323" 
d="M211 614q0 23 -15 38t-36 15q-23 0 -37 -15t-14 -38q0 -26 14 -40.5t37 -14.5q21 0 36 14.5t15 40.5zM264 614q0 -21 -8 -40.5t-22.5 -33.5t-33.5 -22.5t-40 -8.5t-39.5 8.5t-32 22.5t-21.5 33.5t-8 40.5t8 40t21.5 33.5t32 22.5t39.5 8t40 -8t33.5 -22.5t22.5 -33.5
t8 -40z" />
    <glyph glyph-name="tilde" unicode="&#x2dc;" horiz-adv-x="583" 
d="M546 687q-39 -106 -161 -106q-31 0 -56.5 6t-48.5 13t-45 13t-46 6q-60 0 -82 -36l-70 25q61 105 164 105q37 0 63 -6t47.5 -13t41.5 -13t46 -6q47 0 74 34z" />
    <glyph glyph-name="endash" unicode="&#x2013;" horiz-adv-x="595" 
d="M567 234h-540v105h540v-105z" />
    <glyph glyph-name="emdash" unicode="&#x2014;" horiz-adv-x="1006" 
d="M978 234h-951v105h951v-105z" />
    <glyph glyph-name="quoteleft" unicode="&#x2018;" horiz-adv-x="279" 
d="M218 736q-35 -15 -55.5 -38.5t-20.5 -50.5q0 -24 19 -24q42 0 62 -24.5t20 -69.5q0 -46 -29 -71.5t-71 -25.5q-48 0 -77 31.5t-29 86.5q0 47 10 82.5t29 63t47.5 48.5t66.5 40z" />
    <glyph glyph-name="quoteright" unicode="&#x2019;" horiz-adv-x="279" 
d="M62 470q35 15 55.5 38.5t20.5 50.5q0 24 -19 24q-42 0 -62 24.5t-20 69.5q0 46 29 71.5t71 25.5q48 0 77 -31.5t29 -86.5q0 -48 -10 -83t-29 -62.5t-48 -48.5t-66 -40z" />
    <glyph glyph-name="quotesinglbase" unicode="&#x201a;" horiz-adv-x="279" 
d="M62 -106q35 15 55.5 38.5t20.5 50.5q0 24 -19 24q-42 0 -62 24.5t-20 69.5q0 46 29 71.5t71 25.5q48 0 77 -31.5t29 -86.5q0 -48 -10 -83t-29 -62.5t-48 -48.5t-66 -40z" />
    <glyph glyph-name="quotedblleft" unicode="&#x201c;" horiz-adv-x="539" 
d="M478 736q-35 -15 -55.5 -38.5t-20.5 -50.5q0 -24 19 -24q42 0 62 -24.5t20 -69.5q0 -46 -29 -71.5t-71 -25.5q-48 0 -77 31.5t-29 86.5q0 47 10 82.5t29 63t47.5 48.5t66.5 40zM218 736q-35 -15 -55.5 -38.5t-20.5 -50.5q0 -24 19 -24q42 0 62 -24.5t20 -69.5
q0 -46 -29 -71.5t-71 -25.5q-48 0 -77 31.5t-29 86.5q0 47 10 82.5t29 63t47.5 48.5t66.5 40z" />
    <glyph glyph-name="quotedblright" unicode="&#x201d;" horiz-adv-x="539" 
d="M62 470q35 15 55.5 38.5t20.5 50.5q0 24 -19 24q-42 0 -62 24.5t-20 69.5q0 46 29 71.5t71 25.5q48 0 77 -31.5t29 -86.5q0 -48 -10 -83t-29 -62.5t-48 -48.5t-66 -40zM322 470q35 15 55.5 38.5t20.5 50.5q0 24 -19 24q-42 0 -62 24.5t-20 69.5q0 46 29 71.5t71 25.5
q48 0 77 -31.5t29 -86.5q0 -48 -10 -83t-29 -62.5t-48 -48.5t-66 -40z" />
    <glyph glyph-name="quotedblbase" unicode="&#x201e;" horiz-adv-x="626" 
d="M105 -106q35 15 55.5 38.5t20.5 50.5q0 24 -19 24q-42 0 -62 24.5t-20 69.5q0 46 29 71.5t71 25.5q48 0 77 -31.5t29 -86.5q0 -48 -10 -83t-29 -62.5t-48 -48.5t-66 -40zM365 -106q35 15 55.5 38.5t20.5 50.5q0 24 -19 24q-42 0 -62 24.5t-20 69.5q0 46 29 71.5t71 25.5
q48 0 77 -31.5t29 -86.5q0 -48 -10 -83t-29 -62.5t-48 -48.5t-66 -40z" />
    <glyph glyph-name="dagger" unicode="&#x2020;" horiz-adv-x="547" 
d="M256 24q-8 31 -16 78.5t-14 107t-10.5 130.5t-5.5 151q-13 2 -27.5 2.5t-28.5 0.5q-76 0 -94 -22q-10 6 -16.5 19.5t-6.5 23.5q0 31 15 42t34 11q30 0 60 -7t62 -9q-3 15 -4 35t-1 46q0 32 4 52t12.5 31.5t22 15.5t32.5 4q18 0 31 -4t22 -15.5t13 -31.5t4 -52
q0 -29 -1.5 -48t-3.5 -33q21 1 38 3.5t31 5.5t26.5 5t26.5 2q18 0 34 -11t16 -42q0 -10 -7 -23.5t-18 -19.5q-18 22 -93 22q-29 0 -56 -3q-2 -162 -16 -283t-31 -184h-34z" />
    <glyph glyph-name="daggerdbl" unicode="&#x2021;" horiz-adv-x="527" 
d="M466 472q-18 22 -93 22q-29 0 -56 -3q0 -8 -1 -16t-3 -21.5t-5 -35t-7 -57.5q4 -36 7 -58t5 -35t3 -20.5t1 -14.5q14 -3 28 -4t28 -1q74 0 93 22q11 -6 18 -22.5t7 -25.5q0 -27 -16 -37.5t-34 -10.5q-15 0 -29.5 4t-30 8.5l-31 9t-31.5 5.5q2 -16 3.5 -46t1.5 -56
q0 -32 -2.5 -50.5t-9.5 -28t-18.5 -12t-29.5 -2.5q-19 0 -31 2.5t-18.5 12t-9 28t-2.5 50.5q0 29 1 58t4 44q-15 -1 -30 -5.5l-30 -9t-30.5 -8.5t-31.5 -4q-19 0 -34 10.5t-15 37.5q0 9 6.5 25.5t16.5 22.5q19 -22 94 -22q28 0 56 5q0 34 6.5 62.5t10.5 65.5q-4 34 -9.5 63
t-7.5 67q-13 2 -27.5 2.5t-28.5 0.5q-76 0 -94 -22q-10 6 -16.5 22t-6.5 26q0 27 15 37.5t34 10.5q30 0 60 -7t62 -9q-3 15 -4 35t-1 46q0 32 2.5 52t9 31.5t18.5 15.5t31 4q18 0 29.5 -4t18.5 -15.5t9.5 -31.5t2.5 -52q0 -29 -1.5 -48t-3.5 -33q31 2 60.5 9t61.5 7
q18 0 34 -10.5t16 -37.5q0 -10 -7 -26t-18 -22z" />
    <glyph glyph-name="bullet" unicode="&#x2022;" horiz-adv-x="411" 
d="M375 363q0 -35 -12.5 -63.5t-34.5 -49t-52.5 -31.5t-67.5 -11q-78 0 -124.5 42.5t-46.5 112.5q0 34 12 62.5t34.5 49t54 32t70.5 11.5q37 0 67.5 -11.5t52.5 -32t34.5 -49t12.5 -62.5z" />
    <glyph glyph-name="ellipsis" unicode="&#x2026;" horiz-adv-x="1195" 
d="M84 96q0 21 8 39.5t22.5 32.5t33.5 22t40 8t39.5 -8t32.5 -22t22 -32.5t8 -39.5t-8 -40t-22 -33.5t-32.5 -22.5t-39.5 -8t-40 8t-33.5 22.5t-22.5 33.5t-8 40zM492 96q0 21 8 39.5t22.5 32.5t33.5 22t40 8t39.5 -8t32.5 -22t22 -32.5t8 -39.5t-8 -40t-22 -33.5
t-32.5 -22.5t-39.5 -8t-40 8t-33.5 22.5t-22.5 33.5t-8 40zM903 96q0 21 8 39.5t22.5 32.5t33.5 22t40 8t39.5 -8t32.5 -22t22 -32.5t8 -39.5t-8 -40t-22 -33.5t-32.5 -22.5t-39.5 -8t-40 8t-33.5 22.5t-22.5 33.5t-8 40z" />
    <glyph glyph-name="perthousand" unicode="&#x2030;" horiz-adv-x="990" 
d="M223 0h-90l338 682h94zM324 518q0 -75 -34 -120.5t-100 -45.5q-26 0 -49.5 8t-41 27t-28 49t-10.5 74q0 78 32.5 125t101.5 47q27 0 50.5 -8.5t41 -28t27.5 -51t10 -76.5zM190 414q10 0 17.5 4.5t12 16t7 31t2.5 48.5q0 33 -1.5 53.5t-5 32.5t-10 16t-16.5 4
q-20 0 -30 -18t-10 -73q0 -35 1.5 -57.5t5.5 -35t10.5 -17.5t16.5 -5zM633 166q0 -75 -34.5 -120.5t-100.5 -45.5q-26 0 -49 8t-41 27t-28.5 49t-10.5 74q0 78 32.5 125t101.5 47q27 0 50.5 -8.5t41 -28t28 -51t10.5 -76.5zM498 62q10 0 17.5 4.5t12 16t7 31t2.5 48.5
q0 33 -1.5 53.5t-5 32.5t-10 16t-16.5 4q-20 0 -30 -18t-10 -73q0 -35 1.5 -57.5t5.5 -35t10.5 -17.5t16.5 -5zM933 166q0 -75 -34.5 -120.5t-100.5 -45.5q-26 0 -49 8t-41 27t-28.5 49t-10.5 74q0 78 32.5 125t101.5 47q27 0 50.5 -8.5t41 -28t28 -51t10.5 -76.5zM798 62
q10 0 17.5 4.5t12 16t7 31t2.5 48.5q0 33 -1.5 53.5t-5 32.5t-10 16t-16.5 4q-20 0 -30 -18t-10 -73q0 -35 1.5 -57.5t5.5 -35t10.5 -17.5t16.5 -5z" />
    <glyph glyph-name="guilsinglleft" unicode="&#x2039;" horiz-adv-x="337" 
d="M310 426l-107 -138l107 -141l-71 -81l-212 222l212 220z" />
    <glyph glyph-name="guilsinglright" unicode="&#x203a;" horiz-adv-x="338" 
d="M98 508l212 -220l-212 -222l-71 81l107 141l-107 138z" />
    <glyph glyph-name="fraction" unicode="&#x2044;" horiz-adv-x="337" 
d="M-73 0h-90l552 745h94z" />
    <glyph glyph-name="Euro" unicode="&#x20ac;" horiz-adv-x="817" 
d="M105 414q23 128 115.5 198t249.5 70q41 0 88.5 -10.5t88 -33.5t67.5 -59.5t27 -88.5q0 -42 -22.5 -65t-64.5 -23q-43 0 -67 22t-24 60q0 32 19 49.5t40 18.5q-20 23 -54 35t-72 12q-46 0 -77.5 -14.5t-51.5 -40t-30.5 -59t-14.5 -71.5h207l-24 -56h-186v-38t1 -21h158
l-24 -57h-125q18 -68 54.5 -97t75.5 -29q38 0 66.5 5.5t49 19t35.5 36t26 55.5l103 -21q-11 -47 -32 -88t-56 -72t-87 -49t-125 -18q-61 0 -116 15.5t-99.5 47.5t-75 80.5t-42.5 114.5h-66l12 57h47q-1 7 -1 14v15v15t1 15h-59l12 56h53z" />
    <glyph glyph-name="uni2117" unicode="&#x2117;" horiz-adv-x="923" 
d="M468 759q84 0 157.5 -29.5t128 -81.5t86 -123.5t31.5 -156.5q0 -79 -29.5 -148.5t-83 -122t-127.5 -83t-163 -30.5q-93 0 -168 30.5t-128.5 83t-82.5 122t-29 148.5q0 83 32 154.5t87.5 124t130 82.5t158.5 30zM469 677q-74 0 -135 -24t-104.5 -65.5t-68 -98
t-24.5 -121.5q0 -72 28.5 -128.5t75 -96t106 -60.5t122.5 -21q81 0 142.5 28t102.5 72t61.5 98.5t20.5 107.5q0 72 -27.5 129.5t-73.5 97.5t-104.5 61t-121.5 21zM474 313v-70q0 -27 64 -27v-60h-260v60q51 0 51 27v253q0 26 -51 26v61h262q38 0 66.5 -5t47.5 -19
t28.5 -38.5t9.5 -62.5q0 -78 -38 -111.5t-114 -33.5h-66zM474 388h21q38 0 51 14.5t13 55.5q0 24 -13 37t-51 13h-21v-120z" />
    <glyph glyph-name="trademark" unicode="&#x2122;" horiz-adv-x="988" 
d="M51 743h356v-128l-53 -3q-1 39 -11.5 53.5t-30.5 14.5h-18v-179q0 -19 35 -19v-55h-199v55q34 0 34 19v179h-18q-20 0 -30.5 -14.5t-11.5 -53.5l-53 3v128zM612 427l-61 238v-164q0 -19 36 -19v-55h-141v55q36 0 36 19v168q0 19 -36 19v55h219l41 -183l42 183h191v-55
q-36 0 -36 -19v-168q0 -19 36 -19v-55h-195v55q36 0 36 19v164l-62 -238h-106z" />
    <glyph glyph-name="onethird" unicode="&#x2153;" 
d="M236 0h-90l552 745h94zM237 752q-2 -14 -2.5 -23.5t-0.5 -19.5v-251q0 -23 57 -23v-42h-227v42q65 0 65 23v196h-71l-2 41q75 2 104 64zM696 -8q-34 0 -59.5 9t-42.5 23t-25.5 31.5t-8.5 34.5q0 21 11.5 34t31.5 13t32 -12.5t12 -32.5q0 -11 -8.5 -21t-20.5 -11
q8 -12 27.5 -19t41.5 -7q65 0 65 63q0 43 -19.5 60.5t-64.5 21.5l5 33q30 2 48 15t18 44q0 27 -14.5 38.5t-43.5 11.5q-42 0 -62 -23q15 -1 25.5 -11t10.5 -25q0 -18 -11 -30.5t-32 -12.5q-20 0 -31 12.5t-11 32.5q0 17 7.5 35t23.5 32.5t42 24t64 9.5q27 0 51.5 -5
t43 -15.5t29.5 -27.5t11 -40q0 -33 -19 -52.5t-61 -27.5q48 -6 71 -29.5t23 -59.5q0 -30 -13 -52t-35 -36.5t-51 -21t-61 -6.5z" />
    <glyph glyph-name="twothirds" unicode="&#x2154;" 
d="M236 0h-90l552 745h94zM696 -8q-34 0 -59.5 9t-42.5 23t-25.5 31.5t-8.5 34.5q0 21 11.5 34t31.5 13t32 -12.5t12 -32.5q0 -11 -8.5 -21t-20.5 -11q8 -12 27.5 -19t41.5 -7q65 0 65 63q0 43 -19.5 60.5t-64.5 21.5l5 33q30 2 48 15t18 44q0 27 -14.5 38.5t-43.5 11.5
q-42 0 -62 -23q15 -1 25.5 -11t10.5 -25q0 -18 -11 -30.5t-32 -12.5q-20 0 -31 12.5t-11 32.5q0 17 7.5 35t23.5 32.5t42 24t64 9.5q27 0 51.5 -5t43 -15.5t29.5 -27.5t11 -40q0 -33 -19 -52.5t-61 -27.5q48 -6 71 -29.5t23 -59.5q0 -30 -13 -52t-35 -36.5t-51 -21t-61 -6.5
zM179 757q27 0 53.5 -5.5t46.5 -18t32.5 -34t12.5 -53.5q0 -38 -15.5 -61t-39.5 -37.5t-52 -23.5t-53.5 -18t-44.5 -20.5t-24 -31.5q16 14 33 19.5t38 5.5q18 0 31.5 -3t24.5 -7t22 -7t24 -3q14 0 24.5 6t12.5 25h28q2 -5 2 -11v-11q0 -17 -3 -31.5t-10.5 -26t-20.5 -18
t-34 -6.5q-29 0 -47.5 5t-33 11.5t-29.5 11.5t-37 5q-35 0 -50 -26h-38q8 45 25 74t37.5 48.5t42 33t39.5 27t29.5 31.5t11.5 47q0 28 -16 44t-44 16q-27 0 -40.5 -8t-19.5 -20q12 0 21 -10t9 -26q0 -18 -11 -31t-32 -13q-20 0 -31 13t-11 33q0 16 8 34.5t24.5 34.5t42.5 26
t62 10z" />
    <glyph glyph-name="oneeighth" unicode="&#x215b;" 
d="M236 0h-90l552 745h94zM237 752q-2 -14 -2.5 -23.5t-0.5 -19.5v-251q0 -23 57 -23v-42h-227v42q65 0 65 23v196h-71l-2 41q75 2 104 64zM780 203q32 -14 52.5 -39.5t20.5 -63.5q0 -56 -42 -82t-105 -26q-66 0 -107.5 25t-41.5 77q0 32 17 55.5t52 35.5q-23 14 -38.5 34.5
t-15.5 50.5q0 51 38 73t95 22t95 -21.5t38 -67.5q0 -21 -14.5 -41t-43.5 -32zM659 165q-19 -10 -27 -26t-8 -39q0 -26 17.5 -44t54.5 -18t53.5 11.5t16.5 35.5q0 16 -10 27.5t-25.5 20t-34.5 16t-37 16.5zM738 223q17 9 25.5 21t8.5 33q0 19 -13 32t-44 13q-23 0 -39.5 -9
t-16.5 -30q0 -22 24.5 -35.5t54.5 -24.5z" />
    <glyph glyph-name="threeeighths" unicode="&#x215c;" 
d="M236 0h-90l552 745h94zM780 203q32 -14 52.5 -39.5t20.5 -63.5q0 -56 -42 -82t-105 -26q-66 0 -107.5 25t-41.5 77q0 32 17 55.5t52 35.5q-23 14 -38.5 34.5t-15.5 50.5q0 51 38 73t95 22t95 -21.5t38 -67.5q0 -21 -14.5 -41t-43.5 -32zM659 165q-19 -10 -27 -26t-8 -39
q0 -26 17.5 -44t54.5 -18t53.5 11.5t16.5 35.5q0 16 -10 27.5t-25.5 20t-34.5 16t-37 16.5zM738 223q17 9 25.5 21t8.5 33q0 19 -13 32t-44 13q-23 0 -39.5 -9t-16.5 -30q0 -22 24.5 -35.5t54.5 -24.5zM176 384q-34 0 -59.5 9t-42.5 23t-25.5 31.5t-8.5 34.5q0 21 11.5 34
t31.5 13t32 -12.5t12 -32.5q0 -11 -8.5 -21t-20.5 -11q8 -12 27.5 -19t41.5 -7q65 0 65 63q0 43 -19.5 60.5t-64.5 21.5l5 33q30 2 48 15t18 44q0 27 -14.5 38.5t-43.5 11.5q-42 0 -62 -23q15 -1 25.5 -11t10.5 -25q0 -18 -11 -30.5t-32 -12.5q-20 0 -31 12.5t-11 32.5
q0 17 7.5 35t23.5 32.5t42 24t64 9.5q27 0 51.5 -5t43 -15.5t29.5 -27.5t11 -40q0 -33 -19 -52.5t-61 -27.5q48 -6 71 -29.5t23 -59.5q0 -30 -13 -52t-35 -36.5t-51 -21t-61 -6.5z" />
    <glyph glyph-name="fiveeighths" unicode="&#x215d;" 
d="M236 0h-90l552 745h94zM780 203q32 -14 52.5 -39.5t20.5 -63.5q0 -56 -42 -82t-105 -26q-66 0 -107.5 25t-41.5 77q0 32 17 55.5t52 35.5q-23 14 -38.5 34.5t-15.5 50.5q0 51 38 73t95 22t95 -21.5t38 -67.5q0 -21 -14.5 -41t-43.5 -32zM659 165q-19 -10 -27 -26t-8 -39
q0 -26 17.5 -44t54.5 -18t53.5 11.5t16.5 35.5q0 16 -10 27.5t-25.5 20t-34.5 16t-37 16.5zM738 223q17 9 25.5 21t8.5 33q0 19 -13 32t-44 13q-23 0 -39.5 -9t-16.5 -30q0 -22 24.5 -35.5t54.5 -24.5zM321 736q-9 -15 -24 -25.5t-32 -18t-35.5 -11t-36.5 -3.5
q-14 0 -35 2.5t-41 11.5l-6 -73q17 11 39.5 16t49.5 5q40 0 67 -9.5t43.5 -26t23.5 -38.5t7 -47q0 -37 -13.5 -62.5t-36.5 -41.5t-53 -23.5t-64 -7.5q-27 0 -52.5 7.5t-44.5 21t-30.5 32t-11.5 41.5q0 20 11 33t31 13t32 -12.5t12 -30.5q0 -14 -9 -24.5t-20 -11.5
q11 -26 63 -26q42 0 59.5 24t17.5 72q0 36 -15 56.5t-48 20.5q-24 0 -44 -6.5t-38 -17.5l-30 22l15 157q27 -4 65.5 -6t68.5 -2q26 0 59 3t56 9v-23z" />
    <glyph glyph-name="seveneighths" unicode="&#x215e;" 
d="M236 0h-90l552 745h94zM780 203q32 -14 52.5 -39.5t20.5 -63.5q0 -56 -42 -82t-105 -26q-66 0 -107.5 25t-41.5 77q0 32 17 55.5t52 35.5q-23 14 -38.5 34.5t-15.5 50.5q0 51 38 73t95 22t95 -21.5t38 -67.5q0 -21 -14.5 -41t-43.5 -32zM659 165q-19 -10 -27 -26t-8 -39
q0 -26 17.5 -44t54.5 -18t53.5 11.5t16.5 35.5q0 16 -10 27.5t-25.5 20t-34.5 16t-37 16.5zM738 223q17 9 25.5 21t8.5 33q0 19 -13 32t-44 13q-23 0 -39.5 -9t-16.5 -30q0 -22 24.5 -35.5t54.5 -24.5zM60 652q-2 4 -2 9.5v11.5q0 17 2.5 32t10 26.5t21 18t35.5 6.5
q29 0 47 -5t32.5 -11.5t29.5 -11.5t39 -5q17 0 24.5 6t17.5 20l18 -30q-35 -38 -56 -66t-32.5 -53.5t-15.5 -52t-4 -59.5q0 -10 0.5 -20t0.5 -21q0 -14 -1.5 -26.5t-7.5 -22t-16.5 -15.5t-28.5 -6q-32 0 -47 18t-15 49q0 38 13 71.5t34.5 62.5t50 53t59.5 44q-14 -7 -26 -9
t-23 -2q-14 0 -26.5 3.5t-23.5 7.5t-22 7.5t-22 3.5q-13 0 -23.5 -7t-14.5 -27h-28z" />
    <glyph glyph-name="minus" unicode="&#x2212;" horiz-adv-x="567" 
d="M37 305v100h493v-100h-493z" />
    <glyph glyph-name="zerooldstyle" unicode="&#xf8b7;" horiz-adv-x="682" 
d="M627 285q0 -152 -77 -227t-214 -75q-56 0 -107 12t-89.5 44.5t-61.5 88.5t-23 144q0 162 73.5 237t217.5 75q58 0 109 -13t89.5 -46.5t60.5 -91.5t22 -148zM339 105q18 0 30.5 7t20 26.5t10.5 53.5t3 88q0 55 -3 90.5t-10 55.5t-19 27.5t-29 7.5t-29 -6.5t-20 -24.5
t-12 -49.5t-4 -80.5q0 -62 2.5 -100t9.5 -59t19 -28.5t31 -7.5z" />
    <glyph glyph-name="oneoldstyle" unicode="&#xf8b8;" horiz-adv-x="580" 
d="M426 591q-3 -27 -4.5 -46t-1.5 -36v-362q0 -43 106 -43v-104h-458v104q124 0 124 43v236h-133l-4 100q140 3 193 119z" />
    <glyph glyph-name="twooldstyle" unicode="&#xf8b9;" horiz-adv-x="688" 
d="M341 584q49 0 98 -8t87.5 -29.5t62.5 -58.5t24 -95q0 -48 -16.5 -80t-44 -52.5t-63.5 -32t-74 -18.5t-75.5 -12.5t-68.5 -14.5t-53 -23.5t-29 -39.5q22 20 53 31.5t76 11.5q34 0 58 -5t44 -11t39 -11t44 -5t41.5 5.5t23.5 38.5h63q2 -12 2.5 -32.5t0.5 -31.5
q0 -25 -8 -47t-24.5 -38.5t-41 -26.5t-58.5 -10q-61 0 -98.5 8t-64.5 17t-51.5 17t-59.5 8q-31 0 -51.5 -10.5t-28.5 -29.5h-93q15 80 44 128.5t63.5 78t70.5 46.5t65.5 35.5t48.5 44.5t19 73q0 48 -27 69t-62 21q-42 0 -63 -11.5t-29 -29.5q20 -1 39 -21t19 -50
q0 -35 -23.5 -59.5t-65.5 -24.5t-64 25.5t-22 64.5q0 32 16 66.5t49 63t84.5 47t123.5 18.5z" />
    <glyph glyph-name="threeoldstyle" unicode="&#xf8ba;" horiz-adv-x="651" 
d="M301 -209q-63 0 -110.5 17.5t-78.5 45t-46.5 62.5t-15.5 70q0 42 22 68.5t64 26.5t64.5 -26t22.5 -64q0 -26 -17 -45.5t-40 -21.5q14 -19 45.5 -28.5t61.5 -9.5q48 0 72 43.5t24 112.5q0 28 -5.5 52t-19 43t-37.5 32t-61 18l6 73q46 3 69 38.5t23 86.5q0 20 -5 38.5
t-15.5 33t-27 23t-38.5 8.5q-36 0 -59 -10.5t-39 -21.5q28 -2 49.5 -22t21.5 -51q0 -37 -22.5 -62t-62.5 -25q-39 0 -60.5 25.5t-21.5 65.5q0 34 14 68.5t45 63t81 46.5t121 18q49 0 94 -12t79.5 -36.5t54.5 -61t20 -85.5q0 -69 -31.5 -108.5t-100.5 -54.5
q76 -15 115.5 -59.5t39.5 -139.5q0 -55 -21 -98.5t-59.5 -74t-93 -46.5t-121.5 -16z" />
    <glyph glyph-name="fouroldstyle" unicode="&#xf8bb;" horiz-adv-x="728" 
d="M668 0h-79v-192h-244v192h-300v92l307 476h237v-466h91zM176 102h169v262z" />
    <glyph glyph-name="fiveoldstyle" unicode="&#xf8bc;" horiz-adv-x="639" 
d="M341 567q22 0 50 1.5t56.5 4.5t55.5 7t46 9l2 -50q-15 -28 -42.5 -49t-59.5 -35.5t-66.5 -22t-62.5 -7.5q-25 0 -53 4.5t-62 19.5l-16 -158q22 19 65 29t91 10q46 0 89 -10.5t76.5 -36.5t53.5 -69t20 -107q0 -77 -24 -135.5t-64 -99t-92.5 -61t-108.5 -20.5q-44 0 -88 13
t-79 38t-56.5 62t-21.5 85q0 40 20.5 65.5t57.5 25.5q38 0 60 -25t22 -60q0 -31 -17 -51t-36 -21q7 -19 27 -30.5t57 -11.5q55 0 91.5 55t36.5 171q0 66 -22 103.5t-79 37.5q-40 0 -69.5 -11.5t-55.5 -32.5l-60 50l32 328q23 -4 52 -7t59.5 -4.5t60 -2.5t54.5 -1z" />
    <glyph glyph-name="sixoldstyle" unicode="&#xf8bd;" horiz-adv-x="674" 
d="M497 656q-18 15 -43 21t-50 6q-36 0 -62.5 -15t-43.5 -51t-25.5 -95.5t-8.5 -149.5q9 21 26.5 37t40 27.5t48 17.5t49.5 6q40 0 75 -14t60.5 -41.5t40 -70t14.5 -99.5t-15 -103.5t-49 -79t-88.5 -50.5t-133.5 -18q-63 0 -114 18t-87 59.5t-56 108.5t-20 165
q0 81 17 158.5t56 139t102.5 99t155.5 37.5q36 0 75.5 -8t72 -28t54 -54t21.5 -86q0 -43 -21.5 -66.5t-60.5 -23.5q-40 0 -62.5 23t-22.5 61q0 33 17.5 50.5t37.5 18.5zM341 63q36 0 50 33.5t14 108.5q0 78 -13.5 110.5t-46.5 32.5q-34 0 -49 -30.5t-15 -99.5
q0 -86 12 -120.5t48 -34.5z" />
    <glyph glyph-name="sevenoldstyle" unicode="&#xf8be;" horiz-adv-x="545" 
d="M422 530q13 0 21 1.5t14 6t12 12.5t14 20l36 -66q-56 -63 -89.5 -118t-51.5 -105.5t-23.5 -99t-5.5 -98.5q0 -43 2 -88t2 -96q0 -23 -5.5 -42t-19.5 -33t-37 -22t-57 -8q-67 0 -95.5 34t-28.5 91q0 75 24.5 150.5t65 143t93 121.5t108.5 86q-26 -12 -47 -16.5t-42 -4.5
q-22 0 -42 5t-38.5 11t-37 11t-37.5 5q-12 0 -22 -1t-18 -5.5t-13.5 -14t-8.5 -26.5h-59q-2 13 -2.5 34.5t-0.5 33.5q0 27 7.5 51t23 42t38.5 28.5t55 10.5q57 0 91.5 -8.5t60.5 -18.5t50.5 -18.5t62.5 -8.5z" />
    <glyph glyph-name="eightoldstyle" unicode="&#xf8bf;" horiz-adv-x="651" 
d="M55 199q0 66 26 112.5t75 73.5q-32 32 -53 75.5t-21 103.5q0 55 18.5 94t51 64t77 36.5t96.5 11.5t97 -11t77 -34.5t50.5 -58.5t18.5 -83q0 -38 -18 -79.5t-62 -70.5q22 -17 41.5 -38t34.5 -47t23.5 -58.5t8.5 -72.5q0 -61 -20.5 -105t-56.5 -72.5t-85.5 -42
t-107.5 -13.5q-59 0 -108.5 13t-85.5 40t-56.5 67.5t-20.5 94.5zM313 78q63 0 89 19.5t26 58.5q0 28 -18 50t-47 42.5t-65.5 41t-72.5 44.5q-25 -29 -32.5 -61.5t-7.5 -67.5q0 -64 35.5 -95.5t92.5 -31.5zM257 619q0 -22 10.5 -39.5t29.5 -33t45 -30t58 -30.5q20 22 29 49.5
t9 62.5q0 40 -22 63.5t-70 23.5q-51 0 -70 -18t-19 -48z" />
    <glyph glyph-name="nineoldstyle" unicode="&#xf8c0;" horiz-adv-x="674" 
d="M184 -96q18 -15 41.5 -21t48.5 -6q36 0 61.5 16t42 53.5t24 98t7.5 150.5q-9 -21 -26.5 -37t-40 -27.5t-48 -17.5t-49.5 -6q-41 0 -75.5 14t-60 41.5t-40 70t-14.5 99.5t15 103.5t49 79t88.5 50.5t133.5 18q63 0 114 -18.5t87 -61t56 -112t20 -171.5q0 -76 -16.5 -152.5
t-54.5 -138t-100.5 -100t-154.5 -38.5q-36 0 -75 8t-71 28t-53 54t-21 86q0 43 21.5 66.5t60.5 23.5q40 0 62.5 -23t22.5 -61q0 -33 -17.5 -50.5t-37.5 -18.5zM330 504q-36 0 -50 -33.5t-14 -108.5q0 -78 13.5 -110.5t46.5 -32.5q34 0 49 30.5t15 99.5q0 85 -12 120t-48 35z
" />
    </font>
</defs>
</svg>
